<svg width="747" height="593" viewBox="0 0 747 593" fill="none" xmlns="http://www.w3.org/2000/svg">
  <g filter="url(#filter0_d_1_1054)">
    <path
      d="M269.032 181.151C269.888 180.539 271.248 179.229 273.518 176.954C273.95 176.521 274.49 176.201 275.053 175.867C275.937 175.342 276.877 174.784 277.546 173.701C280.273 169.283 284.295 165.395 285.097 165.537C290.026 166.411 293.226 169.571 296.034 172.344C300.618 176.872 304.157 180.367 312.471 171.189C313.609 169.933 313.417 168.241 313.213 166.443C313.017 164.718 312.81 162.896 313.758 161.268C315.902 157.585 320.17 156.758 323.543 158.105C324.711 158.571 325.217 159.413 325.771 160.336C326.642 161.788 327.632 163.438 331.503 164.133C337.856 165.275 341.923 167.415 346.495 169.819L346.496 169.82C348.215 170.724 350.006 171.666 352.016 172.606C353.486 173.293 354.956 173.155 356.868 172.974C358.162 172.852 359.659 172.711 361.494 172.794C362.004 172.817 362.476 172.673 362.907 172.403C364.219 172.714 365.38 173.463 366.283 175.165C366.951 176.424 367.974 177.138 368.871 177.763C370.462 178.871 371.656 179.703 369.77 182.815C370.803 185.323 371.843 186.373 373.245 186.601C374.159 186.75 375.1 186.249 376.028 185.755C376.325 185.597 376.619 185.44 376.912 185.305C378.433 184.603 380.423 186.394 381.472 188.204C381.621 188.461 381.803 188.727 381.989 188.999C382.676 190.006 383.417 191.09 382.758 192.103C382.331 192.758 382.082 192.954 381.712 193.243C381.489 193.417 381.222 193.626 380.845 193.992C381.594 195.565 382.13 196.929 381.562 198.102C381.362 198.515 381.026 198.904 380.665 199.321C380.001 200.089 379.254 200.952 379.127 202.233C378.987 203.642 380.492 206.218 381.837 207.561C385.165 210.883 386.998 211.702 388.356 212.31C389.486 212.815 390.287 213.173 391.346 214.703C392.177 215.905 394.817 219.256 397.789 221.407C398.213 221.714 398.649 222.037 399.089 222.362C401.729 224.314 404.515 226.373 405.851 225.929C406.472 225.723 407.003 225.526 407.465 225.354C408.496 224.971 409.188 224.713 409.79 224.761C410.263 224.799 410.219 225.556 410.164 226.521C410.1 227.627 410.02 229.006 410.687 229.883C411.56 230.174 414.948 231.4 417.281 233.92C417.824 234.506 418.065 235.389 418.302 236.256C418.599 237.342 418.889 238.402 419.755 238.822C420.292 239.082 420.835 238.934 421.397 238.78C421.783 238.674 422.179 238.566 422.588 238.586C423.003 238.607 423.46 238.595 423.928 238.583C425.003 238.556 426.14 238.526 426.983 238.879C427.407 239.057 427.734 239.361 428.061 239.666C428.559 240.129 429.06 240.595 429.915 240.631C430.798 240.668 431.553 240.486 432.277 240.311C433.742 239.958 435.087 239.634 437.133 241.202C441.617 244.638 445.405 246.896 450.797 248.022C456.113 249.088 461.341 250.259 465.587 252.774C466.021 253.031 466.43 253.269 466.818 253.495C469.714 255.182 471.439 256.188 473.532 259.138C477.546 264.797 482.395 271.842 480.052 280.298C479.273 283.109 478.691 284.835 478.268 285.825C478.79 287.489 478.836 292.686 476.501 294.516C476.501 294.516 473.126 293.76 470.575 294.935C469.77 295.305 469.305 295.967 469.058 296.439C469.284 297.203 469.228 302.587 468.599 303.976C468.391 304.436 468.332 305.166 468.263 306.022C468.166 307.215 468.05 308.652 467.485 309.948C466.836 312.033 464.91 316.272 462.455 319.145C464.353 325.706 458.139 325.673 443.914 325.596C440.285 325.577 436.134 325.554 431.463 325.638C429.771 325.668 431.509 328.581 433.04 331.146C435.518 335.299 437.454 338.543 423.42 327.181C421.468 325.6 417.935 325.981 415.675 326.112C412.15 326.317 409.724 327.721 406.932 330.253C406.43 330.709 405.936 331.343 405.552 331.787C404.469 333.038 403.501 334.429 401.257 334.241C398.799 334.965 396.41 334.321 393.826 334.751C391.565 335.127 388.892 336.22 385.459 337.002C380.391 338.156 375.049 336.983 369.515 336.461C367.705 336.29 365.882 336.118 364.056 336.003C358.65 335.661 354.227 336.144 350.334 340.376C348.784 342.994 344.43 346.497 340.671 349.579C337.342 352.309 334.456 354.774 334.076 356.021C333.583 357.636 333.075 359.76 332.848 360.93L332.695 361.083C332.52 362.838 332.492 364.076 331.928 364.918C330.817 366.573 328.467 366.617 327.912 366.005C325.456 363.254 326.018 357.279 326.472 352.449L326.491 352.251C326.653 350.528 326.914 349.064 327.16 347.688C327.595 345.249 327.98 343.088 327.677 340.252C326.813 332.192 325.638 329.004 322.773 327.59C321.288 326.856 320.188 325.615 319.374 323.791C319.048 323.061 318.782 322.259 318.489 321.373C318.371 321.019 318.249 320.651 318.117 320.269C317.681 319.005 316.69 317.434 315.464 315.492C314.746 314.354 313.948 313.089 313.134 311.684C312.805 311.117 312.513 310.624 312.25 310.18C310.834 307.789 310.241 306.789 309.089 302.914C308.166 299.809 309.696 297.85 310.976 296.211C311.55 295.476 312.075 294.805 312.304 294.124C312.656 293.08 312.828 292.588 312.764 292.129C312.687 291.588 312.281 291.093 311.451 289.793C311.366 289.672 311.264 289.495 311.143 289.284C310.574 288.288 309.57 286.533 307.803 286.366C305.734 286.169 303.252 285.132 301.229 284.287C300.639 284.041 300.089 283.811 299.598 283.623C297.576 281.644 297.561 279.066 297.546 276.431C297.536 274.553 297.525 272.646 296.787 270.907C295.246 267.631 294.936 265.631 295.049 263.222C295.12 261.717 297.324 258.152 297.914 258.539C297.715 258.283 297.492 258.037 297.258 257.781C296.714 257.183 296.115 256.524 295.64 255.524C295.602 255.444 295.546 255.324 295.475 255.171C294.839 253.802 292.989 249.823 292.109 249.14C291.115 248.367 290.956 246.647 290.789 244.832C290.688 243.734 290.584 242.601 290.289 241.622C289.96 240.526 288.22 238.347 287.324 237.262C284.163 233.432 286.29 231.401 288.185 229.591C288.232 229.546 288.279 229.501 288.325 229.457C289.874 227.974 292.509 227.879 293.071 228.058C293.97 227.11 296.058 223.663 294.577 222.13C292.921 219.921 290.771 219.725 288.457 219.513C286.479 219.333 284.381 219.141 282.368 217.673C282.099 217.477 281.79 217.28 281.46 217.069C280.001 216.137 278.116 214.933 277.326 212.333C277.058 211.452 276.846 210.38 276.622 209.244C275.996 206.072 275.271 202.399 272.948 200.985C268.407 198.221 263.528 194.87 265.004 191.142C265.211 190.619 265.334 190.699 265.528 190.826C265.749 190.971 266.062 191.176 266.698 190.62C266.403 189.73 267.31 189.434 267.837 189.262C267.89 189.244 267.94 189.228 267.984 189.213C268.664 188.181 268.789 187.588 268.973 186.719C269.058 186.316 269.156 185.854 269.327 185.261C269.418 184.948 268.953 184.465 268.47 183.962C267.781 183.248 267.056 182.494 267.843 182.137C267.849 182.29 268.341 181.845 269.032 181.151Z"
      fill="#F1F8FF" />
    <path fill-rule="evenodd" clip-rule="evenodd"
      d="M116.616 45.3492C116.044 53.0141 114.968 63.4421 119.439 70.2416C122.127 74.3292 126.997 74.6064 130.501 77.5363C131.593 78.4485 133.047 80.1293 134.093 81.601C134.721 82.4838 134.774 83.2914 135.296 83.8127C135.411 83.9279 136.256 84.6056 136.812 85.4556C137.738 86.8728 137.775 89.0017 138.063 89.5778C140.108 93.669 145.35 93.8674 148.208 96.7259C151.206 99.7235 150.288 102.839 148.139 104.723C145.52 107.019 142.796 107.392 141.028 110.858C140.55 111.796 140.524 113.262 139.982 114.329C139.646 114.988 138.211 116.391 137.678 117.018C135.584 119.486 131.885 124.656 127.956 124.594C126.872 124.577 126.068 124.048 125.111 124.28C121.221 125.224 120.768 135.338 122.093 138.357C123.264 141.026 127.78 142.103 130.127 143.407C131.678 144.269 132.927 145.344 134.552 146.162C136.547 147.166 139.818 147.804 142.006 148.003C144.372 148.218 146.728 147.458 148.562 148C153.244 149.385 154.833 163.254 147.51 162.599C145.243 162.397 142.913 161.193 140.425 162.101C136.372 163.58 135.356 168.67 135.404 172.447C135.468 177.393 139.064 179.871 142.539 182.428C146.2 185.123 152.105 183.909 150.434 189.878C149.533 193.097 146.031 196.29 145.828 199.415C146.057 200.733 146.875 201.953 147.157 203.034C148.659 208.783 143.371 209.502 139.665 210.264C137.863 210.635 135.745 210.027 134.436 209.845C130.512 209.301 127.187 205.865 123.136 205.191C115.548 203.928 110.176 217.057 102.291 212.872C99.7226 211.509 99.568 211.129 96.5663 211.446C94.4567 211.669 92.4891 213.037 90.5145 213.304C84.5329 214.247 80.6121 210.104 75.1805 209.606C71.1092 209.233 66.7959 211.115 64.038 214.225C61.5267 217.057 60.9454 220.366 57.5179 222.411C54.4717 224.228 48.8944 224.065 47.236 223.262C44.8049 222.082 43.9988 219.166 41.6977 217.995C40.0216 217.143 36.939 216.506 36.6603 214.093C36.3073 211.037 40.6956 206.162 43.2415 204.782C44.2414 204.241 45.5809 204.191 46.5594 203.788C47.6012 203.359 48.2748 201.955 49.092 201.138C49.5997 200.63 53.117 203.287 53.9078 201.721C54.2196 201.103 49.6313 197.443 52.4342 197.786C52.8686 197.839 53.5636 198.45 54.104 198.616C58.8486 200.076 54.1618 195.1 54.1618 193.686C54.1618 190.383 55.6213 191.612 58.0027 191.612C59.1553 191.612 60.4665 188.695 60.7684 187.771C61.3014 186.14 62.5729 185.957 63.3595 184.817C64.0534 183.811 64.3023 181.906 64.3023 179.782C64.3023 178.246 65.9154 177.976 67.3746 176.824C68.4245 175.996 69.5491 172.56 69.9982 171.392C70.8824 169.092 73.4298 167.436 73.9139 164.801C74.8721 159.582 71.9669 154.748 70.9851 149.72C70.0626 144.993 70.1465 139.973 68.0343 135.53C66.3409 131.968 63.3735 128.787 62.3796 124.917C62.0785 123.746 61.9629 122.383 61.5617 121.043C61.0989 119.496 59.801 117.306 59.713 115.705C59.6117 113.864 61.3971 111.82 61.4884 110.097C61.5329 109.246 60.9373 108.466 60.7897 107.611C60.6881 107.02 61.0065 106.429 60.8291 105.842C58.8946 99.4437 54.715 95.3274 49.2036 91.8045C45.9207 89.7059 42.4387 88.8839 39.13 86.949L36.9272 85.1905C33.4706 83.9463 27.6256 82.9005 25.5921 79.675C24.4587 77.8772 24.716 75.4741 24.2548 73.4189C23.6838 70.8759 21.8222 68.7592 21.3039 66.1416C21.1294 65.2603 20.6524 62.0403 20.9811 61.2655C22.5773 57.497 29.5888 53.9823 33.0583 52.8897C36.9062 51.6778 40.8694 51.3579 44.7494 50.3777C49.5584 49.1625 49.4859 55.4205 52.7938 55.4941C55.6048 55.5567 57.9891 53.5854 60.493 52.6625C63.9088 51.404 65.9953 53.309 68.8073 55.1168C69.9905 55.877 71.6724 56.2583 73.0127 57.0096C74.5312 57.8611 75.6996 59.0358 76.8014 58.9853C80.4649 58.8167 81.2928 54.5823 84.1475 52.7524C88.4968 49.9646 95.2459 47.4128 100.207 45.8594C101.508 45.4515 102.675 44.8069 104.161 44.6299C104.904 44.5411 105.732 44.8916 106.515 44.9092C108.47 44.9527 110.091 43.1257 111.875 43.1364C112.219 43.1386 116.581 45.2314 116.616 45.3492Z"
      fill="#E9F4FE" />
    <path
      d="M261.557 37.7913C258.678 37.7609 255.734 38.8915 253.465 39.7625C250.464 40.9151 248.646 41.6132 249.728 38.5655C250.035 37.703 250.649 34.9848 248.25 36.1716C245.542 37.5121 242.954 36.6221 240.196 35.6739C238.299 35.0214 236.321 34.3413 234.169 34.3413C230.213 34.3413 229.846 38.1868 229.538 41.4176C229.287 44.0519 229.074 46.2775 226.987 45.6768C226.374 45.5002 226.62 44.2041 226.887 42.7981C227.249 40.8928 227.649 38.7856 226.002 38.9881C224.737 40.0977 223.953 41.5981 223.256 42.9312C222.051 45.2354 221.107 47.0401 218.398 45.4651C215.474 43.7658 216.608 41.8906 217.731 40.0338C218.731 38.3812 219.722 36.7431 217.835 35.2565C216.017 33.8249 213.606 35.2789 212.695 37.1574C212.441 40.0954 208.721 46.7683 204.88 45.8178C204.409 45.7011 203.883 45.663 203.308 45.6213C201.881 45.5177 200.149 45.3921 198.191 43.9871C197.569 43.6271 196.314 42.5091 194.786 41.1479C190.784 37.5829 184.909 32.3495 183.617 34.6933C183.05 35.7225 182.656 36.6381 182.326 37.4081C181.615 39.0612 181.193 40.0442 179.956 40.0442C179.109 40.0442 178.02 39.833 176.851 39.6061C175.494 39.3428 174.028 39.0584 172.704 39.0584C171.178 39.0584 170.188 38.0383 169.168 36.9859C168.163 35.9508 167.129 34.8843 165.523 34.726C161.039 35.8701 158.132 33.7152 156.189 32.1923C155.879 31.9491 155.609 31.7239 155.374 31.5283C154.084 30.4538 153.861 30.2684 153.991 32.8792C153.997 33.0019 154.003 33.1248 154.009 33.2477C154.283 38.6919 154.562 44.223 145.948 41.0241C144.515 40.6437 143.524 41.2676 142.677 41.8012C141.732 42.3957 140.966 42.8781 139.965 41.7339C137.429 38.8321 135.323 40.1549 133.293 41.4303C132.631 41.8461 131.977 42.257 131.318 42.5147C130.201 42.9518 129.023 42.8649 128.042 42.7925C126.978 42.7141 126.147 42.6528 125.879 43.2951C124.281 47.1223 120.222 48.2236 116.437 47.6951C115.886 55.0388 115.41 64.1139 119.439 70.2419C121.037 72.6727 123.408 73.7559 125.803 74.8509C127.436 75.5972 129.081 76.349 130.501 77.5365C131.593 78.4487 133.047 80.1296 134.093 81.6013C134.395 82.0255 134.564 82.4324 134.716 82.7985C134.88 83.1942 135.025 83.5422 135.296 83.8129C135.314 83.8316 135.352 83.8649 135.404 83.9113C135.677 84.1519 136.346 84.7434 136.811 85.4559C137.419 86.3862 137.644 87.6231 137.809 88.5262C137.895 88.9989 137.964 89.3801 138.063 89.578C139.266 91.9842 141.574 93.0438 143.853 94.09C145.449 94.8227 147.031 95.5488 148.208 96.7261C151.206 99.7237 150.288 102.839 148.139 104.724C147.22 105.529 146.289 106.098 145.39 106.646C143.726 107.662 142.176 108.608 141.028 110.858C140.796 111.313 140.671 111.891 140.541 112.489C140.403 113.123 140.261 113.779 139.982 114.329C139.748 114.787 138.984 115.605 138.36 116.272C138.087 116.564 137.84 116.827 137.678 117.018C137.429 117.311 137.158 117.643 136.866 117.999C134.702 120.64 131.418 124.649 127.956 124.595C127.5 124.587 127.094 124.489 126.705 124.396C126.169 124.267 125.666 124.146 125.111 124.28C121.221 125.225 120.768 135.339 122.093 138.357C122.941 140.29 125.544 141.388 127.807 142.342C128.668 142.706 129.48 143.048 130.127 143.408C130.824 143.795 131.46 144.225 132.096 144.656C132.876 145.183 133.657 145.712 134.552 146.162C136.546 147.167 139.818 147.804 142.006 148.003C143.041 148.097 144.074 148.005 145.062 147.916C146.333 147.803 147.53 147.696 148.562 148.001C148.668 148.032 148.772 148.069 148.875 148.113C152.602 148.046 157.431 148.465 164.968 150.89C169.126 152.293 172.313 152.295 175.281 152.298C179.342 152.302 182.993 152.305 188.163 155.888C189.564 156.822 190.975 157.672 192.373 158.514C195.014 160.105 197.609 161.669 200.013 163.722C200.417 163.595 200.818 163.476 201.246 163.361C203.47 162.447 206.547 162.003 209.629 161.558C210.933 161.37 212.238 161.181 213.48 160.957C217.974 160.146 222.117 159.909 225.681 162.498C226.015 162.741 226.34 162.875 226.74 162.848L227.131 162.822C228.979 162.698 230.984 162.564 233.078 162.682C233.081 162.682 233.083 162.681 233.086 162.681C233.095 162.682 233.103 162.683 233.112 162.684C236.091 162.856 239.25 163.541 242.4 165.493C246.391 167.969 253.34 170.289 256.048 169.571L259.001 168.787C259.038 168.898 259.089 169.01 259.155 169.125C259.978 168.617 260.767 167.882 261.544 166.868C266.149 160.856 266.09 159.534 258.356 154.735C253.757 150.997 256.305 147.683 259.036 144.13C260.507 142.216 262.031 140.233 262.52 138.077C265.18 132.291 270.046 131.46 273.169 130.926C275.207 130.578 276.503 130.357 275.957 128.967C275.86 123.915 277.751 123.067 279.687 122.199C281.162 121.538 282.664 120.865 283.332 118.312C285.043 113.067 285.53 106.794 283.42 101.931C282.167 99.0424 277.295 93.834 271.944 93.834C263.194 93.834 265.02 88.8566 270.886 85.5001C276.305 83.525 279.754 83.2669 282.351 83.0725C285.799 82.8144 287.746 82.6686 290.813 78.7676C293.018 75.9615 292.08 68.8402 289.053 66.4464C285.074 62.9143 281.01 60.4432 277.676 58.4155C273.785 56.0495 270.887 54.2871 270.274 52.1472C271.678 50.29 273.032 48.9748 274.947 47.9212C275.826 47.4386 276.822 47.0108 277.798 46.5916C278.952 46.0963 280.077 45.613 280.947 45.0653C292.529 37.7766 267.453 37.7899 262.275 37.7927C261.955 37.7928 261.712 37.793 261.557 37.7913Z"
      fill="#F1F8FF" />
    <path fill-rule="evenodd" clip-rule="evenodd"
      d="M204.842 272.038C204.487 275.191 203.247 277.533 200.44 276.669C194.489 274.837 194.415 279.861 196.031 281.171C197.348 282.979 198.382 284.199 198.792 285.772C199.618 288.941 199.744 291.452 199.522 293.451C198.92 298.874 207.187 304.264 209.607 304.097C214.023 303.793 219.784 312.326 225.777 308.393C230.832 305.075 236.42 300.465 231.464 296.764C226.131 292.782 231.307 287.375 229.081 283.718C227.632 281.338 228.803 272.849 225.577 273.798C219.216 275.669 224.444 273.199 223.925 271.413C222.193 265.45 215.57 276.507 214.499 272C213.663 268.486 209.271 273.209 204.842 272.038Z"
      fill="#F1F8FF" />
    <path
      d="M58.5124 273.097C58.4345 272.335 59.7111 271.37 60.4102 270.879L60.4724 270.875C68.5227 271.328 70.3368 270.692 75.1838 265.623C78.5878 262.219 83.5721 260.932 86.6823 266.347C88.4816 270.482 90.8447 270.283 93.7512 270.039C96.4649 269.81 99.6521 269.542 103.296 272.724C105.905 273.993 107.726 275.393 109.37 276.655C112.243 278.862 114.574 280.653 119.614 280.604C127.702 279.902 132.029 281.032 135.083 281.829C136.586 282.222 137.781 282.533 138.963 282.507C143.173 283.715 150.392 284.538 148.101 277.576C144.071 268.757 152.39 267.98 152.39 270.449C153.71 278.134 156.513 276.008 159.965 273.389C162.327 271.597 164.992 269.575 167.694 270.304C174.067 271.629 178.092 274.072 181.613 276.21C185.845 278.779 189.35 280.907 195.331 280.123C195.488 280.556 195.73 280.927 196.03 281.171C196.226 281.439 196.414 281.694 196.596 281.939C197.64 283.349 198.442 284.432 198.791 285.772C199.063 286.816 199.259 287.787 199.392 288.693C198.725 291.065 196.366 292.992 193.85 295.048L193.849 295.048C192.791 295.913 191.705 296.8 190.705 297.752C187.702 300.614 183.941 299.961 180.327 299.334C178.121 298.951 175.97 298.578 174.08 299.019C169.237 301.444 171.531 303.717 174.898 307.055C178.807 310.93 184.163 316.239 181.487 324.885C180.429 324.469 179.63 323.834 178.849 323.214C177.35 322.024 175.919 320.888 172.858 321.456C171.648 321.453 170.87 320.909 170.013 320.31C169.045 319.633 167.975 318.886 166.066 318.767C165.97 318.761 165.869 318.755 165.765 318.748C163.407 318.598 159.128 318.325 157.595 319.871C156.801 321.262 155.737 321.869 153.09 320.998C151.264 321.094 150.688 322.462 150.233 323.545C149.943 324.234 149.701 324.807 149.218 324.865C147.867 325.028 147.047 324.423 146.294 323.867C145.458 323.251 144.705 322.695 143.401 323.316C142.046 323.668 141.139 323.284 140.21 322.891C139.094 322.419 137.948 321.935 135.959 322.696C130.506 322.07 128.765 322.858 127.351 323.498C126.077 324.075 125.068 324.532 121.851 323.729C119.572 322.851 118.002 323.516 116.19 324.283C115.787 324.454 115.373 324.629 114.936 324.794C114.651 324.902 114.388 325.016 114.141 325.124C113.039 325.605 112.256 325.946 111.233 324.9L109.979 323.618C108.537 322.74 106.734 323.085 105.218 323.374C104.069 323.593 103.085 323.781 102.546 323.382C102.415 323.285 102.27 323.154 102.104 323.005C101.313 322.293 100.053 321.158 97.6558 321.242C95.7973 321.308 94.6645 319.449 94.5702 319.295C94.5667 319.289 94.5647 319.286 94.564 319.285C93.4463 317.705 91.9509 317.668 90.6805 317.637C89.4187 317.607 88.3788 317.581 88.151 316.055C88.1471 316.028 88.1434 316.003 88.1399 315.978C88.1353 315.947 88.131 315.917 88.1269 315.888C88.0473 315.329 88.0389 315.27 87.4895 314.826C85.8135 313.473 84.0833 312.835 82.3163 312.658C80.1176 312.398 78.1574 311.827 76.803 310.467C76.1077 309.769 75.974 309.74 74.9135 309.714C74.0628 309.693 73.1924 309.759 72.3098 309.825H72.3093C69.3479 310.048 66.2496 310.282 63.2983 307.295C61.0517 305.691 59.5553 304.481 58.5006 303.375C56.2761 301.044 55.0201 297.152 54.6501 293.982C54.4031 291.864 54.607 289.587 56.0383 288.101C56.7786 287.333 58.0618 286.738 59.0804 286.456C59.9388 286.218 61.1308 286.184 62.7756 286.999C65.3266 287.928 65.0224 287.506 64.1799 286.337C63.4612 285.34 62.3507 283.8 62.2878 282.091C62.2709 281.625 62.2252 281.266 61.9532 280.876L61.1529 279.725C60.9303 279.411 60.6768 279.29 60.4385 279.176C60.2278 279.076 60.029 278.981 59.8737 278.763C59.6169 278.404 59.5171 277.781 59.4118 277.123C59.3631 276.818 59.3132 276.506 59.246 276.21L58.5124 273.097Z"
      fill="#F1F8FF" />
    <path
      d="M164.968 150.89C157.432 148.465 152.602 148.046 148.875 148.113C153.312 150.004 154.668 163.239 147.51 162.599C146.796 162.536 146.076 162.372 145.346 162.207C145.179 162.169 145.011 162.131 144.842 162.094L144.811 162.09C144.78 162.086 144.749 162.082 144.718 162.077C144.7 162.071 144.682 162.066 144.663 162.06C144.648 162.055 144.632 162.051 144.617 162.046C143.261 161.759 141.869 161.574 140.425 162.101C136.373 163.58 135.356 168.67 135.404 172.447C135.466 177.233 138.835 179.708 142.201 182.18C142.314 182.263 142.426 182.346 142.539 182.429C143.728 183.303 145.153 183.766 146.479 184.197C149.236 185.092 151.563 185.848 150.434 189.879C150.032 191.313 149.114 192.742 148.202 194.163C147.067 195.93 145.941 197.683 145.828 199.415C145.959 200.169 146.283 200.891 146.589 201.574C146.818 202.084 147.037 202.571 147.158 203.034C148.579 208.475 143.917 209.411 140.272 210.142L140.27 210.142C140.065 210.183 139.863 210.224 139.665 210.265C138.279 210.55 136.705 210.255 135.456 210.022C135.083 209.952 134.738 209.887 134.436 209.845C132.456 209.571 130.628 208.56 128.783 207.539C128.234 207.235 127.684 206.931 127.127 206.644C126.704 206.445 126.284 206.243 125.868 206.041C124.986 205.656 124.081 205.348 123.136 205.191C119.68 204.616 116.683 207.027 113.699 209.427C110.133 212.297 106.584 215.151 102.291 212.872C101.956 212.694 101.662 212.533 101.398 212.388L101.397 212.388C99.6338 211.422 99.176 211.171 96.5665 211.446C95.4662 211.562 94.4047 211.99 93.3606 212.411L93.3603 212.411C92.4024 212.797 91.4593 213.177 90.5146 213.305C87.0351 213.853 84.2529 212.681 81.465 211.506C79.4603 210.661 77.4527 209.815 75.1807 209.606C71.1093 209.234 66.7961 211.115 64.0381 214.226C63.081 215.305 62.4042 216.453 61.7433 217.575C60.6703 219.396 59.6392 221.146 57.518 222.411C54.834 224.012 50.185 224.076 47.983 223.519C48.1395 224.053 48.4981 226.219 48.4179 226.585C47.5611 228.254 47.752 229.781 47.9475 231.346C48.1311 232.816 48.3188 234.318 47.6467 236C42.9562 245.721 44.9825 247.699 47.882 250.53C48.6529 251.282 49.4854 252.095 50.2699 253.13C51.0276 254.306 51.085 255.619 51.1445 256.979C51.2736 259.934 51.4127 263.116 58.7579 265.63C59.9657 265.848 60.5415 266.66 59.6852 269.401C59.5685 269.776 59.8656 270.318 60.2264 270.889L60.473 270.875C68.5234 271.328 70.3374 270.692 75.1845 265.623C78.5884 262.22 83.5728 260.932 86.683 266.347C88.4822 270.482 90.8454 270.283 93.7519 270.039C96.4655 269.81 99.6528 269.542 103.297 272.724C105.905 273.993 107.727 275.393 109.371 276.655C112.244 278.862 114.575 280.653 119.614 280.604C127.702 279.902 132.03 281.032 135.084 281.829C136.587 282.222 137.781 282.533 138.964 282.507C143.173 283.715 150.393 284.538 148.101 277.576C144.072 268.757 152.391 267.98 152.391 270.45C153.71 278.134 156.513 276.008 159.966 273.389C162.327 271.597 164.992 269.575 167.695 270.304C174.068 271.629 178.092 274.072 181.614 276.21C185.845 278.779 189.35 280.907 195.332 280.123C194.645 278.23 195.595 275.177 200.44 276.669C203.247 277.533 204.487 275.191 204.841 272.038C205.073 272.099 205.305 272.145 205.536 272.176C206.277 266.8 204.974 259.202 201.193 260.582C193.135 262.124 186.101 255.871 195.212 254.327C199.692 253.649 201.404 250.308 203.22 246.763C203.827 245.577 204.446 244.368 205.185 243.228C208.939 237.278 211.61 236.664 213.451 236.241C215.723 235.719 216.731 235.487 216.953 225.867C217.191 222.131 218.088 218.984 218.954 215.946C219.713 213.284 220.448 210.706 220.695 207.888C220.709 202.471 224.122 199.561 226.534 197.504C229.175 195.252 230.617 194.022 225.093 191.643C221.539 188.401 220.175 188.354 215.747 188.203C215.162 188.183 214.524 188.161 213.821 188.13C211.396 188.095 209.332 184.64 207.669 181.856C206.809 180.418 206.057 179.158 205.417 178.643C201.204 175.249 201.66 173.026 202.173 170.529C202.578 168.553 203.019 166.405 201.211 163.37C200.797 163.483 200.407 163.598 200.013 163.722C197.61 161.669 195.014 160.105 192.374 158.514L192.373 158.514L192.372 158.513C190.974 157.671 189.564 156.821 188.163 155.887C182.994 152.305 179.342 152.301 175.282 152.298C172.313 152.295 169.126 152.293 164.968 150.89Z"
      fill="#E2F1FF" />
    <path
      d="M272.376 36.2938C273.777 36.712 274.961 37.0657 275.319 37.5749C276.183 37.7573 277.414 38.189 278.537 38.8067C283.618 39.7489 286.51 41.5652 280.948 45.0651C280.078 45.6128 278.952 46.0961 277.799 46.5914C276.823 47.0106 275.826 47.4384 274.948 47.921C273.032 48.9746 271.679 50.2898 270.275 52.147C270.888 54.2869 273.786 56.0493 277.677 58.4153C281.011 60.443 285.074 62.9141 289.053 66.4462C292.081 68.84 293.019 75.9613 290.813 78.7674C287.747 82.6684 285.799 82.8142 282.352 83.0723C279.754 83.2667 276.306 83.5248 270.887 85.4999C265.02 88.8564 263.195 93.8337 271.945 93.8337C277.296 93.8337 282.168 99.0422 283.421 101.93C285.531 106.794 285.043 113.066 283.332 118.311C282.664 120.865 281.163 121.538 279.688 122.199C277.752 123.067 275.861 123.915 275.958 128.967C276.504 130.357 275.208 130.578 273.169 130.926C270.047 131.459 265.181 132.29 262.521 138.076C262.032 140.232 260.508 142.216 259.036 144.13C256.305 147.682 253.758 150.997 258.356 154.735C266.091 159.534 266.15 160.855 261.545 166.868C260.679 167.998 259.798 168.782 258.872 169.291C258.981 170.456 260.498 172.008 264.29 175.278C266.312 177.021 266.872 178.937 267.239 180.193C267.858 182.309 267.929 182.554 273.518 176.954C273.95 176.521 274.49 176.201 275.053 175.867C275.937 175.342 276.877 174.784 277.546 173.702C280.273 169.283 284.295 165.395 285.097 165.537C290.026 166.411 293.226 169.572 296.034 172.344C300.619 176.872 304.157 180.367 312.472 171.189C313.61 169.933 313.418 168.241 313.213 166.443C313.018 164.718 312.811 162.896 313.758 161.268C315.902 157.585 320.17 156.758 323.543 158.105C324.711 158.571 325.217 159.413 325.771 160.336C326.642 161.788 327.632 163.438 331.503 164.133C337.856 165.275 341.924 167.415 346.496 169.819C348.215 170.724 350.005 171.666 352.016 172.606C353.486 173.293 354.957 173.155 356.868 172.974C358.162 172.852 359.659 172.711 361.494 172.794C364.7 172.94 366.4 166.471 365.924 163.622C365.66 162.037 366.694 162.457 367.785 162.9C368.52 163.198 369.28 163.507 369.689 163.223C370.385 162.74 370.221 161.567 370.045 160.304C369.871 159.059 369.685 157.726 370.297 156.877C371.915 154.637 376.099 153.413 383.039 151.384C384.092 151.076 385.209 150.75 386.389 150.399C387.7 148.81 389.439 148.469 391.198 148.124C392.56 147.857 393.933 147.587 395.127 146.734C398.542 144.295 400.284 140.246 402.084 136.064C402.824 134.344 403.574 132.602 404.453 130.94C407.311 125.54 406.484 121.004 403.935 120.803C402.367 120.679 394.713 118.965 390.899 113.545C389.914 110.387 387.373 111.272 385.502 111.924C384.517 112.267 383.718 112.545 383.429 112.136C381.994 110.099 381.668 108.541 381.668 105.723C381.668 104.669 380.258 101.03 378.779 101.002C378.029 100.988 377.51 101.597 376.992 102.205C376.292 103.025 375.596 103.842 374.34 103.116C372.016 101.773 371.301 98.1178 371.873 95.6462C372.317 93.7272 373.586 92.9562 374.582 92.3507C375.379 91.8666 376.001 91.4883 375.89 90.7138C375.446 87.6396 374.234 86.9976 371.233 87.7983C370.927 87.8798 370.54 87.8325 370.131 87.7826C369.625 87.7208 369.085 87.6549 368.622 87.823C368.286 87.9451 368.278 88.6178 368.269 89.3048C368.261 89.9516 368.253 90.6111 367.971 90.836C367.585 91.1441 366.894 90.9685 366.228 90.7994C365.605 90.6411 365.004 90.4884 364.695 90.7429C361.116 93.6919 360.001 92.4431 359.416 91.7884L359.4 91.7707C358.788 91.0849 357.687 90.9846 356.531 90.8793C354.582 90.7017 352.475 90.5097 352.283 87.4722C352.219 86.4484 349.887 83.5966 349.113 83.1033C347.966 82.3252 347.269 83.1154 346.321 84.1921C345.638 84.9676 344.824 85.8917 343.616 86.4856C343.203 86.6891 342.82 86.9363 342.436 87.1843C341.508 87.7842 340.573 88.3884 339.177 88.3884C338.345 88.3884 338.106 87.661 337.782 86.672C337.192 84.873 336.318 82.2086 331.073 81.4829L327.529 78.9344L326.312 71.3685L325.625 70.4648C325.627 70.463 325.626 70.4622 325.623 70.4622L325.625 70.4648C325.609 70.4778 325.444 70.5382 325.183 70.6339C324.048 71.05 321.096 72.1317 320.76 72.8582L319.281 73.7745C317.266 75.0213 314.945 72.9149 314.63 69.9693L314.031 64.3676C313.995 64.0264 315.597 64.4753 317.503 65.0092C319.814 65.6566 322.571 66.4288 323.391 66.0683C326.027 64.9101 327.836 64.6357 329.151 64.4362C331.3 64.1102 332.13 63.9844 333.092 60.5267C334.858 54.1818 331.691 53.3759 328.794 52.6385C327.238 52.2423 325.759 51.8659 325.165 50.6607C325.088 50.5052 324.99 50.2952 324.872 50.0451C324.035 48.2639 322.243 44.4503 320.661 43.8189C319.562 43.3806 318.851 44.0555 317.917 44.9422C316.513 46.2739 314.607 48.0834 310.128 47.3175C307.776 46.9151 306.408 41.3672 307.48 39.6706C309.621 36.2823 310.696 34.949 310.48 33.8755C310.256 32.7634 308.647 31.9301 305.4 29.3799C304.921 29.0045 304.738 27.8756 304.534 26.6225C304.38 25.6761 304.214 24.6589 303.902 23.8419C303.193 21.9895 302.476 21.695 301.716 22.0164C299.976 22.7524 297.878 24.0544 296.257 25.0598C295.245 25.6877 294.42 26.1999 293.984 26.3863C289.265 28.408 284.515 29.6928 280.761 26.6414C274.926 21.8981 271.874 21.5381 267.904 21.0697C267.508 21.023 267.104 20.9753 266.686 20.922C263.367 20.4986 264.37 28.757 266.565 33.036C267.488 34.8339 270.194 35.6422 272.376 36.2938Z"
      fill="#E9F4FE" />
    <path
      d="M259.156 169.125C259.09 169.01 259.038 168.898 259.002 168.787L256.049 169.571C253.34 170.289 246.392 167.969 242.401 165.493C237.024 162.16 231.618 162.521 227.131 162.822L226.74 162.848C226.341 162.875 226.015 162.741 225.681 162.498C222.118 159.909 217.975 160.146 213.481 160.957C212.239 161.181 210.934 161.369 209.63 161.558C206.532 162.005 203.44 162.451 201.214 163.374C203.019 166.407 202.579 168.554 202.173 170.529C201.751 172.588 201.366 174.461 203.608 176.959C203.851 177.214 204.105 177.47 204.364 177.73C204.678 178.025 205.027 178.329 205.417 178.643C205.869 179.007 206.377 179.742 206.94 180.65C207.221 181.053 207.485 181.484 207.725 181.951C209.379 184.718 211.424 188.095 213.822 188.13C214.525 188.161 215.163 188.183 215.747 188.203C220.175 188.354 221.539 188.401 225.094 191.643C230.618 194.022 229.175 195.252 226.534 197.504C224.122 199.561 220.71 202.471 220.696 207.888C220.448 210.706 219.713 213.284 218.955 215.945C218.089 218.984 217.191 222.131 216.954 225.867C216.732 235.487 215.723 235.719 213.451 236.241C211.61 236.664 208.94 237.278 205.185 243.228C204.447 244.368 203.828 245.577 203.22 246.763C201.404 250.308 199.692 253.649 195.212 254.327C186.102 255.871 193.135 262.124 201.193 260.582C204.983 259.199 206.283 266.834 205.531 272.212C207.304 272.46 209.057 271.843 210.545 271.319C212.531 270.62 214.044 270.087 214.499 272.003C214.993 274.08 216.667 272.85 218.498 271.505C220.638 269.932 222.992 268.202 223.926 271.416C224.131 272.122 223.437 272.936 222.917 273.546C222.122 274.477 221.734 274.931 225.578 273.801C227.588 273.21 227.89 276.282 228.184 279.258C228.361 281.059 228.536 282.824 229.082 283.721C229.992 285.215 229.665 287.002 229.325 288.864C228.832 291.559 228.311 294.412 231.464 296.767C234.039 298.689 233.768 300.857 232.231 302.971C234.878 304.221 236.047 306.361 237.304 308.662L237.305 308.663C237.633 309.264 237.968 309.876 238.336 310.485C240.481 314.038 244.734 314.557 247.064 313.478C252.313 311.046 258.3 311.31 263.243 311.527C268.881 311.775 273.16 311.963 273.435 308.024C273.629 305.238 274.944 305.161 278.415 304.958C281.234 304.793 285.476 304.545 291.695 302.694C297.014 301.111 297.564 299.886 298.247 298.363C299.113 296.433 300.194 294.023 311.451 289.795L311.451 289.794L311.451 289.793C311.366 289.673 311.265 289.495 311.144 289.284C310.574 288.289 309.571 286.533 307.803 286.366C305.734 286.169 303.252 285.133 301.229 284.287C300.639 284.041 300.089 283.811 299.599 283.623C297.576 281.644 297.562 279.066 297.547 276.431C297.536 274.553 297.525 272.646 296.787 270.907C295.246 267.631 294.936 265.631 295.049 263.222C295.12 261.717 297.325 258.152 297.914 258.539C297.715 258.283 297.492 258.038 297.259 257.782L297.258 257.781C296.714 257.183 296.115 256.524 295.64 255.524C295.602 255.445 295.546 255.324 295.475 255.171L295.475 255.171C294.838 253.801 292.989 249.823 292.11 249.141C291.115 248.367 290.957 246.647 290.789 244.832L290.789 244.832C290.688 243.734 290.584 242.601 290.289 241.622C289.96 240.526 288.22 238.347 287.324 237.262C284.163 233.433 286.29 231.401 288.185 229.591L288.192 229.585L288.325 229.457C289.874 227.974 292.509 227.879 293.071 228.058C293.97 227.11 296.058 223.664 294.577 222.131C292.921 219.921 290.771 219.725 288.457 219.514C286.479 219.333 284.381 219.142 282.368 217.673C282.099 217.477 281.79 217.28 281.46 217.069C280.002 216.137 278.116 214.933 277.326 212.334C277.058 211.453 276.846 210.38 276.622 209.244C275.996 206.072 275.271 202.399 272.948 200.985C268.407 198.221 263.528 194.87 265.004 191.143C265.211 190.619 265.334 190.7 265.528 190.826C265.749 190.971 266.063 191.176 266.698 190.621C266.403 189.73 267.31 189.434 267.837 189.262L267.839 189.261C267.891 189.244 267.94 189.228 267.984 189.213C268.664 188.181 268.789 187.588 268.973 186.719C269.058 186.316 269.156 185.854 269.327 185.261C269.418 184.948 268.953 184.465 268.47 183.963C267.782 183.248 267.056 182.495 267.843 182.138C267.849 182.29 268.341 181.845 269.032 181.152C269.032 181.152 269.032 181.152 269.032 181.152C267.781 182.046 267.606 181.449 267.239 180.193C266.872 178.937 266.312 177.021 264.29 175.278C260.498 172.008 258.981 170.456 258.872 169.291C258.967 169.239 259.061 169.183 259.156 169.125Z"
      fill="#D6EBFF" />
    <path
      d="M327.999 366.087C327.967 366.062 327.938 366.034 327.912 366.005C325.455 363.254 326.017 357.279 326.472 352.449L326.491 352.251C326.653 350.528 326.914 349.064 327.159 347.688C327.594 345.25 327.98 343.088 327.676 340.252C326.813 332.192 325.637 329.004 322.773 327.59C321.287 326.856 320.188 325.615 319.373 323.792C319.047 323.062 318.781 322.259 318.488 321.374C318.421 321.169 318.352 320.961 318.28 320.748C318.227 320.591 318.173 320.431 318.117 320.269C317.856 319.513 317.397 318.648 316.807 317.658C316.297 316.866 315.798 316.065 315.317 315.259C314.638 314.183 313.893 312.994 313.134 311.685C312.806 311.118 312.515 310.627 312.252 310.183L312.25 310.18C310.833 307.789 310.241 306.789 309.089 302.914C308.165 299.809 309.696 297.85 310.976 296.211L310.976 296.211C311.55 295.476 312.074 294.805 312.304 294.124L312.334 294.035C312.665 293.052 312.826 292.575 312.763 292.13C312.704 291.71 312.447 291.319 311.948 290.559C311.803 290.338 311.638 290.086 311.451 289.794L311.451 289.795C300.194 294.023 299.113 296.433 298.247 298.363C297.563 299.887 297.014 301.111 291.695 302.694C285.475 304.545 281.234 304.793 278.414 304.958C274.944 305.161 273.629 305.238 273.435 308.024C273.16 311.963 268.88 311.775 263.242 311.527H263.242C258.3 311.31 252.313 311.046 247.064 313.478C244.734 314.557 240.481 314.038 238.336 310.485C237.968 309.876 237.634 309.265 237.306 308.665L237.305 308.663L237.304 308.662C236.047 306.361 234.878 304.222 232.23 302.971C232.275 302.91 232.319 302.848 232.361 302.787C232.383 302.756 232.404 302.725 232.425 302.694C232.445 302.664 232.464 302.635 232.483 302.605L232.435 302.633C231.043 304.694 228.341 306.71 225.776 308.393C222.108 310.801 218.525 308.536 215.286 306.487C213.234 305.19 211.319 303.979 209.606 304.098C207.187 304.264 198.919 298.874 199.521 293.452C199.67 292.11 199.663 290.539 199.393 288.693C198.725 291.066 196.367 292.992 193.85 295.048L193.85 295.048C192.792 295.913 191.706 296.8 190.706 297.753C187.703 300.614 183.941 299.961 180.327 299.334C178.122 298.951 175.971 298.578 174.081 299.019C169.238 301.444 171.531 303.717 174.899 307.056C178.808 310.93 184.164 316.239 181.487 324.885C181.27 324.8 181.064 324.705 180.866 324.603C180.842 324.661 180.817 324.719 180.792 324.776C180.773 324.818 180.754 324.859 180.735 324.9C181.247 325.595 181.648 326.453 182.073 327.363C183.4 330.203 184.96 333.541 190.836 333.955C192.775 334.707 193.454 336.01 194.067 337.187C194.805 338.603 195.447 339.836 198.077 339.705C199.342 339.642 199.797 340.094 200.45 340.741C201.378 341.661 202.705 342.977 207.313 343.78L212.648 350.723C213.169 352.023 214.104 353.959 216.967 354.887C219.076 355.572 219.687 357.191 220.322 358.875C220.846 360.265 221.386 361.699 222.8 362.689C224.217 363.975 224.328 366.343 224.427 368.447C224.486 369.712 224.541 370.881 224.872 371.663C225.556 372.373 226.091 373.92 226.67 375.593C227.641 378.4 228.734 381.562 230.862 381.733C232.729 381.613 233.014 382.398 233.31 383.212C233.677 384.218 234.059 385.269 237.475 384.699C239.286 384.396 240.038 385.148 240.671 385.782C241.176 386.287 241.605 386.717 242.437 386.476C243.605 386.137 244.207 387.079 244.915 388.188C245.317 388.817 245.754 389.501 246.348 390.034C250.561 389.491 250.543 389.78 250.446 391.343C250.393 392.19 250.317 393.41 250.879 395.076C251.054 395.595 251.67 396.224 252.323 396.89C253.045 397.627 253.812 398.41 254.079 399.143C254.38 399.97 254.933 400.73 255.466 401.463C256.115 402.357 256.736 403.21 256.838 404.097C256.913 404.737 256.565 405.426 256.248 406.057C255.923 406.703 255.629 407.287 255.848 407.695L257.631 411.009C262.664 409.741 267.276 407.998 271.259 406.493L271.26 406.492C278.071 403.918 283.039 402.04 285.115 404.429C289.54 409.521 292.667 407.106 295.533 404.893L295.62 404.826C297.719 403.205 299.267 403.002 300.837 402.796C303.681 402.423 306.598 402.04 313 393.204C313.956 391.884 315.496 390.847 317.734 390.637C318.647 387.012 319.639 384.246 320.677 382.085C320.562 382.073 320.446 382.062 320.327 382.051C320.422 381.554 320.512 381.072 320.6 380.603C321.929 373.515 322.667 369.577 327.999 366.087Z"
      fill="#E9F4FE" />
    <path
      d="M443.372 333.436C445.458 333.851 447.606 334.4 448.788 335.815C449.624 336.815 452.582 340.803 452.582 342.142C452.582 343.868 451.079 344.503 449.208 344.503C449.664 345.364 450.196 346.253 450.749 347.177C452.715 350.461 454.944 354.185 454.944 358.672V359.347C454.944 360.004 454.864 360.335 454.779 360.69C454.713 360.963 454.644 361.249 454.606 361.708H455.618C455.868 361.708 456.114 361.713 456.354 361.722C455.885 362.121 455.458 362.536 455.047 362.936C454.27 363.691 453.553 364.389 452.728 364.803C448.695 368.68 448.657 369.334 448.549 371.162C448.456 372.729 448.313 375.16 445.555 381.228C443.863 384.951 445.317 387.098 449.678 391.918C452.916 393.548 452.338 398.65 450.628 401.479C448.562 404.897 449.535 407.318 450.335 409.309C450.561 409.87 450.773 410.398 450.899 410.903C451.299 411.982 452.473 415.371 452.527 421.006C446.159 418.62 438.658 418.432 437.735 421.001C436.648 424.027 433.421 425.492 429.842 427.115C429.012 427.492 428.163 427.877 427.317 428.292C426.357 428.763 425.065 428.323 423.783 427.886C421.803 427.211 419.849 426.546 419.191 429.267C418.718 431.226 417.681 434.317 414.637 433.873C413.391 433.692 412.902 434.48 412.333 435.396C411.958 435.999 411.549 436.658 410.867 437.133C408.751 438.603 406.573 441.262 404.563 443.717C401.318 447.679 398.511 451.107 397.106 448.141C393.751 441.06 393.585 441.043 392.016 440.879C391.227 440.796 390.083 440.676 388.002 439.604C383.668 437.371 381.131 437.935 379.294 438.343C377.245 438.799 376.066 439.061 374.231 435.029C373.853 434.843 373.45 434.66 373.036 434.471C369.604 432.905 365.378 430.978 367.588 424.25C369.517 418.377 355.93 423.143 355.954 423.947C356.128 429.895 350.764 429.344 347.086 428.815C343.868 428.351 343.974 426.03 344.211 420.875C344.333 418.219 344.489 414.811 344.244 410.517C343.942 405.266 342.311 403.348 340.848 402.138C337.866 399.671 335.816 396.006 333.854 392.498C332.872 390.743 331.913 389.028 330.869 387.521C329.287 385.236 327.437 382.701 320.327 382.051C320.422 381.554 320.512 381.071 320.6 380.603C322.19 372.123 322.934 368.151 331.711 364.063C333.258 354.068 335.15 352.846 338.281 350.825C339.553 350.003 341.031 349.049 342.772 347.32C348.5 338.544 356.383 334.822 361.791 334.777C365.859 334.742 369.106 335.213 372.574 335.716C375.488 336.139 378.558 336.584 382.403 336.771C383.724 336.654 385.637 336.115 387.891 335.48C391.884 334.355 396.948 332.927 401.685 333.016C403.26 332.921 404.891 331.433 406.647 329.832C407.415 329.132 408.206 328.41 409.027 327.773C411.127 326.145 413.881 325.562 416.614 325.097C417.075 325.018 417.504 324.941 417.906 324.87C422.05 324.129 423.331 323.9 428.306 327.261C428.636 330.905 434.978 331.967 439.494 332.723C439.516 332.726 439.538 332.73 439.559 332.734C440.817 333.024 442.094 333.251 443.372 333.436Z"
      fill="#E2F1FF" />
    <path fill-rule="evenodd" clip-rule="evenodd"
      d="M626.036 393.692C626.036 395.892 624.547 395.505 624.579 399.152C624.491 401.77 624.334 402.589 622.621 403.844C618.926 406.552 616.904 406.154 610.872 406.154C609.958 406.767 609.217 407.413 608.892 407.866C608.011 407.866 606.485 407.304 605.742 406.916C605.405 406.739 604.87 407.438 604.771 407.64C604.923 409.466 604.91 409.166 604.715 411.28C604.715 412.617 603.471 413.147 602.553 414.401C602.759 414.709 604.356 415.503 604.819 415.503C606.976 415.503 607.223 413.864 609.402 413.394L610.128 413.326C610.217 413.66 610.052 414.028 610.128 414.047L609.727 424.455L610.54 426.029C612.884 426.829 618.717 423.361 621.62 423.204C623.219 423.417 625.783 426.194 625.984 427.832C624.24 427.758 624.248 430.569 624.271 431.767C624.271 434.257 625.978 435.077 625.978 436.328C623.968 438.008 623.96 439.186 623.96 440.314C623.96 442.342 626.927 443.853 626.813 445.627C627.066 446.928 626.336 448.454 626.588 449.755L627.331 451.998C627.046 453.59 625.562 455.424 625.562 456.722C625.562 459.859 630.517 466.897 632.222 468.915C633.461 470.381 635.385 473.004 636.435 474.616C637.576 476.365 638.083 478.254 639.347 480.276C641.744 484.108 652.865 498.342 652.865 501.713C655.537 501.936 658.441 505.188 659.045 507.448C660.896 506.954 670.685 500.435 672.064 498.876C677.448 492.792 676.026 491.136 678.558 483.442C680.05 478.908 685.731 475.371 689.351 472.644C692.766 470.072 698.147 464.941 703.576 464.941C705.909 463.378 716.733 456.095 716.733 453.471V452.122C716.733 444.23 709.311 449.536 709.311 438.627V436.94C709.311 435.125 710.809 434.667 710.854 433.541L709.311 421.085V419.735C709.311 415.282 712.424 412.988 717.145 413.063L718.483 411.631L717.745 404.554V404.217C717.745 402.743 718.42 402.992 718.42 401.518V399.494C718.42 398.195 712.281 394.618 710.998 393.759C710.615 394.092 704.15 399.014 704.119 399.025C702.434 399.621 701.065 399.789 699.379 400.358C698.056 400.803 695.421 402.193 694.805 402.193C689.623 402.193 682.73 395.108 678.949 395.108H672.539C667.482 395.108 665.881 397.47 663.43 397.47C661.517 397.47 659.729 396.458 657.021 396.458C653.576 396.458 651.562 397.807 649.599 397.807C645.452 397.807 648.14 395.095 643.877 395.095C640.239 395.096 639.485 394.322 638.803 391.397C637.948 391.808 636.342 392.41 635.093 392.41C631.962 392.869 628.368 391.689 625.252 391.151C625.34 392.206 626.036 392.529 626.036 393.692V393.692Z"
      fill="#F5F5F5" />
    <path fill-rule="evenodd" clip-rule="evenodd"
      d="M545.017 327.298C533.938 327.298 538.649 330.041 535.316 333.038C534.318 333.935 526.841 333.136 523.108 334.907C518.634 336.251 518.216 339.446 515.566 342.413C514.515 343.59 511.206 344.636 509.23 344.757C506.206 344.942 506.242 345.854 503.86 345.854C500.731 344.396 502.211 342.856 496.101 341.468C495.014 340.305 482.13 343.771 482.248 353.67C481.57 363.387 473.155 360.684 473.161 368.457L479.908 368.457C482.354 368.263 488.687 376.056 490.449 377.819C492.27 379.639 493.604 381.244 495.348 383.04C497.494 385.249 497.787 386.557 497.787 390.722C498.202 391.34 499.204 392.746 500.149 392.746H500.486C501.5 392.746 502.172 391.397 503.185 391.397H504.535C507.217 391.397 508.656 396.837 510.607 398.144C513.501 398.144 513.667 396.93 515.763 399.06C516.078 399.381 518.703 402.837 518.703 402.867C518.703 404.34 518.029 404.092 518.029 405.566C518.029 407.225 518.995 407.406 519.506 408.812C519.98 410.118 519.715 412.14 519.715 413.662C523.906 408.841 531.3 413.175 534.904 407.934C536.916 405.008 543.996 400.505 548.728 400.505H552.102C555.643 400.505 554.121 404.079 556.15 405.566C557.554 404.537 557.335 401.517 559.861 401.517C561.488 401.517 562.897 407.034 562.897 408.264C562.897 409.795 561.21 411.81 561.21 411.975C561.21 413.4 562.212 414.195 562.56 415.686L563.21 415.68L563.909 412.987C564.814 412.771 564.545 412.65 565.259 412.65C567.137 412.65 567.404 413.999 567.958 413.999C569.864 413.999 572.67 411.301 575.717 411.301C578.339 411.301 578.974 411.968 580.761 412.666C582.877 413.494 584.415 412.346 586.519 413.656C588.026 414.594 591.91 419.339 591.91 421.421C591.91 422.381 591.235 423.783 590.56 423.783C589.447 423.783 587.778 422.096 585.838 422.096C583.31 422.096 584.12 426.819 579.09 426.819C578.682 427.428 578.415 427.412 578.415 428.169V428.506C578.415 433.394 585.163 434.786 585.163 437.615C585.163 438.719 583.895 439.976 582.464 439.976C579.657 439.976 577.665 436.125 575.379 434.915C572.989 436.516 573.485 444.699 569.982 444.699C566.902 444.699 564.865 443.349 561.548 443.349H559.861C559.114 443.349 557.499 445.063 557.499 445.374C557.499 447.824 559.524 448.2 559.534 451.765L560.873 452.458V457.519C562.641 460.16 563.715 460.845 565.3 464.224C565.497 464.644 570.696 470.001 570.994 470.001H574.03C574.423 468.529 575.849 465.953 577.741 465.953C580.206 465.953 586.175 472.604 586.175 475.061C586.175 475.851 585.615 476.41 584.826 476.41H583.476V477.76C583.476 480.162 586.039 484.229 588.267 484.776C590.693 485.373 590.775 485.238 592.823 486.293C595.633 487.743 593.09 489.905 595.283 489.905H595.958C598.114 489.905 598.525 489.23 600.681 489.23H602.705C603.482 489.23 603.717 489.465 603.717 490.242V490.579C603.717 493.255 597.861 494.29 594.609 494.29L593.243 494.287L592.922 496.315C593.82 496.334 595.621 496.566 595.621 497.327C595.621 499.071 593.052 498.827 592.23 500.009C591.041 501.72 592.023 502.407 589.211 503.062C589.299 504.117 589.548 504.26 589.548 505.423V506.098C589.548 506.934 588.619 507.447 588.199 507.447C583.823 507.447 587.863 498.611 581.789 496.989V499.351C581.789 501.056 582.332 501.143 582.446 502.838L579.266 500.713L570.206 501.058L570.994 507.11H573.355C574.557 507.11 574.678 508.264 574.705 509.471C575.246 509.109 576.602 508.122 577.404 508.122C577.22 509.51 577.973 509.646 577.973 510.863C577.973 511.717 577.741 511.996 577.741 513.182C577.741 514.077 579.183 513.857 580.102 513.857C583.579 516.185 581.518 518.846 583.477 519.254C585.234 519.619 588.874 520.858 588.874 522.628V522.966C588.874 525.213 585.576 523.247 585.5 526.677H589.886C590.797 526.677 590.816 526.838 591.572 527.014V528.026C591.572 530.236 590.336 529.958 589.463 530.977C588.335 532.293 589.211 533.462 589.211 535.111C589.211 538.205 586.175 538.572 586.175 539.496C586.175 541.525 587.187 542.19 587.187 544.219C587.187 547.207 584.949 546.718 583.813 548.267C584.986 550.019 590.095 554.92 590.018 557.052L589.211 564.461C591.325 564.285 596.067 560.557 597.645 559.4C600.329 557.434 601.705 554.397 603.965 551.889C606.285 549.315 608.416 547.572 610.33 544.422C611.149 543.076 612.036 541.413 612.542 539.887C612.806 539.094 613.673 534.658 614.524 534.689L620.922 535.448H621.935C623.666 535.448 625.983 532.14 625.983 530.05C625.983 529.048 625.308 529.148 625.308 527.689V524.99C625.308 522.971 634.752 512.677 636.525 510.905C639.921 507.509 646.545 501.712 652.971 501.712C652.654 497.902 641.566 484.241 639.135 479.451C636.822 474.896 635.847 472.049 632.315 468.392C630.551 466.564 625.645 459.825 625.645 456.844C625.645 455.296 627.332 453.074 627.332 452.121C627.332 450.921 626.657 450.234 626.657 449.422C626.657 447.201 627.479 446.097 626.445 444.237C625.908 443.27 623.959 441.064 623.959 440.313V439.976C623.959 438.142 625.983 436.904 625.983 436.265C625.983 434.495 624.296 433.337 624.296 431.205C624.296 429.593 624.664 428.183 625.983 427.831C625.85 426.229 623.176 423.108 621.597 423.108C620.476 423.108 612.643 425.807 611.477 425.807C610.524 425.807 610.175 425.033 609.726 424.454L610.127 414.337V413.325C607.481 413.384 606.658 415.349 605.067 415.349C602.371 415.349 603.697 412.261 599.337 412.308C597.277 412.33 592.922 411.152 592.922 409.614C592.922 408.14 593.597 408.389 593.597 406.915V402.867C593.597 401.971 593.328 400.168 592.584 400.168C591.421 400.168 590.511 401.517 588.874 401.517H588.536C587.507 401.517 587.175 401.193 586.512 400.842C586.127 401.418 585.778 402.192 584.826 402.192H583.476C582.66 402.192 581.115 400.647 581.115 399.831V398.481C581.115 397.665 582.66 396.12 583.476 396.12H584.826C585.582 396.12 585.566 396.387 586.175 396.794V393.758C585.024 392.039 584.151 391.6 584.151 388.698C584.151 385.029 589.211 384.373 589.211 380.939C589.211 379.69 585.484 379.278 585.5 372.505C585.51 368.173 585.588 364.359 583.813 361.709C583.813 356.559 581.789 356.387 581.789 355.974C581.789 349.395 582.927 347.701 577.635 344.948C571.84 341.932 575.406 336.07 570.319 336.07H568.632C567.977 333.617 551.545 325.612 548.728 325.612C546.86 325.612 545.758 326.192 545.017 327.298Z"
      fill="#E0E0E0" />
    <path
      d="M591.573 527.127V528.026C591.573 529.531 590.999 529.882 590.358 530.275C590.057 530.459 589.742 530.652 589.463 530.977C588.699 531.869 588.855 532.693 589.035 533.645C589.121 534.097 589.212 534.579 589.212 535.111C589.212 537.111 587.942 537.972 587.045 538.581C586.554 538.913 586.175 539.17 586.175 539.496C586.175 540.511 586.428 541.184 586.681 541.858C586.934 542.531 587.187 543.205 587.187 544.219C587.187 546.132 586.271 546.62 585.313 547.129C584.774 547.416 584.223 547.71 583.814 548.268C584.166 548.793 584.872 549.602 585.686 550.535C587.586 552.711 590.072 555.56 590.018 557.052L589.212 564.461C589.306 564.453 589.406 564.438 589.51 564.416C589.187 565.229 588.858 565.925 588.532 566.486C588.476 566.489 588.406 566.493 588.325 566.498C586.753 566.59 580.832 566.937 579.589 565.048C577.142 561.329 576.218 561.572 575.022 561.887C574.296 562.078 573.468 562.296 572.137 561.667C571.764 561.49 571.434 561.329 571.137 561.184C569.096 560.188 568.652 559.971 566.75 560.922C563.761 562.024 561.475 562.117 560.144 560.835C559.813 560.516 559.586 560.266 559.401 560.062L559.4 560.061C558.854 559.459 558.66 559.245 557.179 558.794L554.53 557.986L552.967 556.972C551.595 556.081 551.247 556.112 549.894 557.009C547.335 558.704 545.487 559.913 544.119 558.808C542.968 558.701 542.853 558.773 541.889 559.375L541.875 559.384C539.97 560.574 537.984 561.527 535.96 562.361C534.224 564.588 532.335 566.108 530.28 566.843C530.006 566.941 529.775 567.016 529.574 567.082C528.761 567.348 528.417 567.46 527.568 568.289C525.731 570.082 524.338 570.277 521.891 570.243C521.473 570.237 521.252 570.451 520.954 570.739C520.46 571.218 519.753 571.902 517.578 572.137C516.92 572.208 516.489 572.073 516.056 571.939C515.8 571.859 515.543 571.779 515.239 571.742C514.819 565.358 512.869 554.929 510.737 550.841C508.128 545.843 507.688 544.832 508.261 539.809C508.261 536.309 507.607 534.534 505.973 533.161C501.999 529.822 502.005 527.656 502.011 525.521C502.017 523.151 502.023 520.82 496.593 516.967C493.229 514.58 493.484 512.608 493.739 510.628C493.924 509.192 494.109 507.753 492.916 506.149C491.695 504.819 491.757 503.416 491.824 501.919C491.902 500.16 491.987 498.271 490.007 496.216C487.729 493.851 487.203 491.779 487.985 488.943C488.505 487.056 488.361 486.098 488.235 485.257C488.068 484.143 487.932 483.235 489.414 480.644C491.422 477.132 492.793 471.94 487.438 470.89C483.434 470.732 481.799 469.257 480.32 467.924C479.152 466.871 478.081 465.906 476.019 465.746C473.389 465.284 471.489 463.548 469.629 461.848C467.686 460.073 465.787 458.337 463.144 458.13C454.733 456.787 454.74 455.079 456.353 447.805C456.989 444.937 458.701 442.173 460.254 439.666C462.864 435.452 465.025 431.962 460.88 429.913C458.46 428.716 458.573 428.608 459.123 428.083C459.8 427.438 461.136 426.164 459.25 421.469C459.351 421.313 459.225 421.36 458.916 421.475C458.014 421.813 455.546 422.735 452.527 420.917C452.462 415.335 451.298 411.977 450.9 410.903C450.774 410.398 450.562 409.87 450.336 409.309C449.536 407.318 448.563 404.898 450.629 401.479C452.339 398.65 452.917 393.548 449.679 391.918C445.318 387.098 443.864 384.951 445.556 381.228C448.314 375.16 448.457 372.729 448.55 371.162C448.658 369.334 448.696 368.68 452.729 364.803C453.554 364.389 454.271 363.691 455.048 362.936C455.459 362.536 455.886 362.121 456.355 361.722C461.08 361.901 463.894 363.793 466.478 365.531C468.561 366.932 470.495 368.233 473.161 368.455C473.161 368.456 473.161 368.457 473.161 368.457L479.908 368.457C481.85 368.303 486.243 373.184 488.853 376.084C489.53 376.837 490.087 377.456 490.45 377.819C491.454 378.823 492.31 379.761 493.168 380.702C493.867 381.468 494.567 382.235 495.349 383.041C497.495 385.25 497.788 386.558 497.788 390.722C498.202 391.34 499.204 392.746 500.149 392.746H500.487C500.993 392.746 501.415 392.409 501.837 392.071C502.258 391.734 502.679 391.397 503.186 391.397H504.535C506.148 391.397 507.312 393.364 508.407 395.217C509.133 396.445 509.83 397.623 510.608 398.144C511.529 398.144 512.174 398.021 512.692 397.922C513.803 397.71 514.335 397.609 515.764 399.061C516.064 399.366 518.458 402.514 518.687 402.84C518.692 402.874 518.698 402.908 518.703 402.941C518.693 403.625 518.53 403.92 518.367 404.216C518.198 404.523 518.029 404.829 518.029 405.566C518.029 406.564 518.379 407.027 518.768 407.543C519.027 407.886 519.303 408.252 519.506 408.812C519.859 409.784 519.803 411.152 519.751 412.416C519.733 412.851 519.716 413.273 519.716 413.662C521.762 411.309 524.571 411.137 527.329 410.968C530.222 410.791 533.06 410.617 534.905 407.934C536.917 405.009 543.996 400.506 548.729 400.506H552.102C554.206 400.506 554.523 401.766 554.859 403.101C555.088 404.014 555.326 404.962 556.151 405.566C556.685 405.175 556.984 404.496 557.289 403.804C557.785 402.677 558.296 401.517 559.862 401.517C561.489 401.517 562.898 407.034 562.898 408.265C562.898 409.416 561.943 410.842 561.47 411.548C561.314 411.78 561.211 411.935 561.211 411.976C561.211 412.782 561.532 413.387 561.874 414.03C562.136 414.523 562.41 415.039 562.561 415.687L563.211 415.68L563.91 412.988C564.301 412.894 564.473 412.818 564.599 412.763C564.766 412.689 564.854 412.65 565.259 412.65C566.476 412.65 567.017 413.217 567.397 413.616C567.604 413.832 567.763 414 567.958 414C568.8 414 569.818 413.473 570.954 412.885C572.39 412.142 574.016 411.301 575.717 411.301C577.712 411.301 578.557 411.687 579.633 412.179C579.972 412.334 580.334 412.5 580.761 412.667C581.706 413.036 582.534 413.012 583.35 412.988C584.362 412.959 585.354 412.93 586.52 413.656C588.027 414.594 591.911 419.339 591.911 421.422C591.911 422.381 591.236 423.783 590.561 423.783C590.081 423.783 589.498 423.47 588.835 423.113C587.959 422.642 586.942 422.096 585.838 422.096C584.789 422.096 584.315 422.909 583.76 423.86C582.977 425.202 582.034 426.819 579.091 426.819C578.969 427.002 578.859 427.128 578.766 427.236C578.547 427.488 578.416 427.639 578.416 428.169V428.506C578.416 431.283 580.593 432.931 582.473 434.355C583.904 435.439 585.163 436.393 585.163 437.615C585.163 438.719 583.896 439.976 582.464 439.976C580.74 439.976 579.323 438.523 577.957 437.122C577.099 436.242 576.262 435.382 575.38 434.916C574.355 435.602 573.861 437.498 573.355 439.44C572.68 442.028 571.983 444.699 569.982 444.699C568.471 444.699 567.211 444.374 565.927 444.043C564.595 443.7 563.238 443.35 561.548 443.35H559.862C559.114 443.35 557.5 445.063 557.5 445.374C557.5 446.486 557.917 447.171 558.373 447.92C558.923 448.822 559.529 449.818 559.534 451.765L560.874 452.458V457.519C561.48 458.424 562.004 459.1 562.496 459.733C563.438 460.946 564.259 462.004 565.301 464.224C565.498 464.644 570.697 470.001 570.994 470.001H574.03C574.424 468.53 575.85 465.953 577.741 465.953C580.206 465.953 586.175 472.604 586.175 475.061C586.175 475.851 585.616 476.411 584.826 476.411H583.477V477.76C583.477 480.162 586.04 484.229 588.268 484.776C588.772 484.901 589.176 484.993 589.516 485.071C590.813 485.369 591.202 485.458 592.823 486.294C594.319 487.065 594.298 488.039 594.282 488.78C594.268 489.432 594.258 489.905 595.284 489.905H595.959C597.037 489.905 597.678 489.736 598.32 489.568C598.962 489.399 599.604 489.23 600.682 489.23H602.706C603.483 489.23 603.718 489.465 603.718 490.242V490.579C603.718 493.255 597.862 494.291 594.609 494.291L593.244 494.287L592.923 496.315C593.82 496.335 595.621 496.566 595.621 497.327C595.621 498.35 594.737 498.689 593.841 499.033C593.209 499.275 592.571 499.52 592.231 500.009C591.848 500.56 591.69 501.005 591.558 501.377C591.281 502.159 591.118 502.618 589.212 503.062C589.25 503.521 589.319 503.807 589.384 504.08C589.469 504.434 589.549 504.766 589.549 505.423V506.098C589.549 506.935 588.62 507.447 588.2 507.447C586.173 507.447 585.952 505.553 585.695 503.357C585.397 500.811 585.051 497.86 581.79 496.99V499.351C581.79 500.252 581.942 500.701 582.101 501.175C582.244 501.597 582.393 502.039 582.447 502.838L579.267 500.713L570.207 501.058L570.994 507.11H573.356C574.557 507.11 574.678 508.265 574.705 509.472C574.76 509.435 574.824 509.391 574.895 509.343C575.487 508.939 576.571 508.2 577.294 508.128C577.324 508.188 577.354 508.249 577.384 508.312C577.335 508.949 577.5 509.301 577.668 509.659C577.82 509.983 577.974 510.312 577.974 510.863C577.974 511.255 577.925 511.526 577.872 511.819C577.809 512.164 577.741 512.54 577.741 513.183C577.741 513.935 578.762 513.899 579.633 513.869C579.797 513.863 579.957 513.857 580.103 513.857C582.059 515.167 582.262 516.582 582.414 517.642C582.533 518.466 582.62 519.076 583.477 519.254C585.234 519.62 588.874 520.858 588.874 522.629V522.966C588.874 523.972 588.212 524.134 587.475 524.313C586.566 524.535 585.543 524.784 585.501 526.677H589.886C590.492 526.677 590.703 526.748 590.999 526.847C591.143 526.896 591.307 526.951 591.545 527.008C591.554 527.048 591.564 527.087 591.573 527.127Z"
      fill="#F1F8FF" />
    <path fill-rule="evenodd" clip-rule="evenodd"
      d="M551.09 254.767C549.212 256.024 537.595 259.32 537.595 260.839C537.595 262.63 538.945 263.096 538.945 264.888V265.9C538.945 269.05 533.728 274.53 533.547 276.695H535.571C538.951 276.695 541.644 279.388 541.644 282.767L541.583 283.438L540.632 300.31V307.732C540.632 315.842 544.151 320.008 545.692 326.624C546.244 325.989 548.464 325.753 549.628 325.753C556.049 327.743 565.285 333.034 568.632 336.07C572.089 335.782 570.913 327.015 576.244 325.464C580.47 324.234 579.234 325.983 582.38 322.829C583.922 321.283 585.222 319.987 586.766 318.443C592.402 312.807 597.603 304.695 608.103 304.695H610.802C616.323 304.695 615.254 305.532 620.113 303.549C622.667 302.507 625.153 300.944 627.342 299.645C633.774 295.831 635.368 295.206 639.948 289.405C642.908 285.655 647.103 281.461 651.618 279.39C654.408 278.759 658.016 278.229 660.581 277.042C662.225 276.282 665.454 272.673 665.454 270.96C665.454 270.769 660.786 267.232 659.715 264.891C658.914 263.143 658.944 262.371 659.143 259.868C659.312 257.752 657.374 259.49 655.333 259.49C651.433 259.49 639.246 253.262 636.574 251.26C633.009 248.588 633.175 244.549 631.047 243.293C628.805 241.97 624.633 239.548 624.633 236.212V235.2C624.633 231.083 629.019 228.162 629.019 227.104V223.393C629.019 219.94 625.947 216.983 622.609 216.983C622.575 216.983 618.62 218.288 617.41 218.531C615.396 218.933 613.581 219.021 611.605 219.473C608.377 220.211 604.922 222.455 602.144 223.844C598.634 225.599 595.444 226.086 592.35 227.544C588.819 229.209 586.802 230.8 583.681 232.706C580.732 234.508 577.696 235.639 573.69 236.209C568.413 236.961 570.629 241.298 568.034 244.386C566.98 245.64 562.528 248.98 560.796 250.642C559.056 252.313 554.366 254.767 551.09 254.767V254.767Z"
      fill="#EDECEC" />
    <path fill-rule="evenodd" clip-rule="evenodd"
      d="M473.026 258.451C471.253 264.761 470.863 262.565 474.385 267.036C475.635 268.871 476.197 272.34 476.197 275.345V277.031C476.197 282.409 473.836 284.929 473.836 288.501V289.513C473.836 291.841 475.719 292.108 476.197 293.899H473.836C466.259 293.899 467.1 297.67 465.402 298.285C465.719 299.644 466.414 299.97 466.414 301.321V302.333C466.414 304.189 465.751 305.057 464.926 306.243C463.435 308.387 464.344 307.99 464.028 310.743C463.562 314.816 464.392 317.851 459.927 317.774L457.98 319.876L456.361 319.943L455.618 320.55C455.84 321.5 456.293 322.264 456.293 323.249C456.293 323.612 455.307 324.599 454.606 324.599H454.269C452.755 324.599 449.884 321.312 449.884 320.55V319.538H448.872C447.842 319.538 447.51 319.214 446.847 318.863C446.847 317.62 447.146 316.502 445.835 316.502H443.474C442 316.502 442.249 317.177 440.775 317.177H440.1C438.626 317.177 438.875 316.502 437.401 316.502H437.064C433.295 316.502 428.293 322.401 428.293 325.611V326.96C428.293 331.527 437.354 332.245 441.706 333.114C444.22 333.615 447.285 334.016 448.788 335.814C449.624 336.815 452.582 340.802 452.582 342.141C452.582 343.868 451.08 344.503 449.209 344.503C451.285 348.426 454.944 352.922 454.944 358.672V359.346C454.944 360.509 454.694 360.653 454.606 361.708H455.618C464.761 361.708 467.02 367.944 473.161 368.455C473.342 360.325 482.136 365.305 482.257 353.261C482.311 347.831 489.666 341.467 495.089 341.467H496.101C498.913 341.467 500.831 345.852 503.861 345.852C507.233 345.852 513.437 344.561 515.252 342.737C518.501 339.473 517.425 337.613 522.523 335.164C526.792 333.113 532.522 334.174 535.033 333.168C538.188 331.905 535.379 327.297 545.018 327.297L546.262 326.606C546.262 320.972 540.311 315.691 540.632 305.004L541.614 283.102C541.917 281.057 543.455 277.133 533.658 276.186C535.058 273.541 539.526 269.343 538.946 264.887C538.946 264.118 537.899 262.134 537.596 260.838C540.288 258.598 548.601 256.929 551.09 254.766C548.373 254.766 543.676 253.615 542.994 251.73C542.237 251.906 542.218 252.067 541.307 252.067H540.632C538.125 252.067 534.12 248.466 532.186 248.363C529.447 248.217 524.698 249.368 521.066 249.368H517.355C511.392 249.368 506.071 244.983 499.812 244.983H499.475C496.523 244.983 495.965 247.99 493.871 249.161C485.284 253.965 479.975 252.901 473.026 258.451V258.451Z"
      fill="#E9E9E9" />
    <path fill-rule="evenodd" clip-rule="evenodd"
      d="M611.293 304.7L606.747 304.744C595.34 305.902 591.88 313.323 587.29 317.913C584.535 320.667 581.156 324.01 577.586 325.13C572.963 325.898 569.623 331.82 568.633 336.072C574.767 339.015 571.812 341.645 577.635 344.949C581.519 347.153 581.749 349.272 581.678 356.065L583.579 359.053C594.159 359.053 594.004 365.193 598.707 365.193L601.939 365.327C604.332 365.327 606.351 362.537 607.721 362.537C608.762 362.739 611.117 367.014 612.442 367.014C614.371 367.014 613.837 364.36 617.552 364.36L618.269 364.27C621.225 364.27 623.568 365.884 623.881 368.204C623.819 369.783 622.461 368.85 622.121 370.959C622.767 373.732 624.349 373.667 624.349 376.644L624.416 379.589C624.416 381.953 622.231 382.981 621.424 384.301C621.491 387.293 624.747 389.006 625.412 391.406C627.949 391.836 630.486 392.267 633.023 392.698C633.966 392.653 634.91 392.608 635.854 392.564C637.417 392.564 636.756 391.844 638.778 391.8C638.396 390.368 637.791 390.471 637.791 389.374V388.362C637.791 381.311 649.261 381.651 649.261 377.229V376.891C649.261 375.764 646.873 373.222 645.995 371.386C644.971 369.245 644.585 366.706 643.541 364.731C642.483 362.73 639.981 362.344 639.02 360.144C637.447 356.545 639.815 353.963 639.815 352.94C639.815 351.533 637.791 350.446 637.791 349.229V348.554C637.791 348.03 646.767 339.203 647.545 337.055C649.591 331.41 650.559 326.455 658.032 326.288C656.313 323.722 650.013 322.019 649.935 318.529H651.285C652.906 318.529 653.037 319.541 654.659 319.541H655.671C657.887 319.541 665.471 315.163 666.466 313.806C665.164 311.862 660.916 310.349 660.719 307.409C660.445 303.331 660.394 299.442 660.394 295.251V292.552C660.394 288.816 660.82 283.581 662.209 281.211C663.771 278.547 665.454 274.877 665.454 270.962C663.171 272.635 664.515 274.86 660.292 276.932C657.968 278.072 654.152 278.508 651.619 279.393C647.696 280.762 641.878 286.347 639.412 289.451C634.945 295.072 634.399 295.496 628.139 299.175C625.736 300.588 623.579 301.855 620.667 303.317C615.713 305.343 616.948 304.7 611.293 304.7V304.7Z"
      fill="#E9E9E9" />
    <path fill-rule="evenodd" clip-rule="evenodd"
      d="M666.289 313.565C664.347 314.767 658.209 318.464 655.67 319.539C653.983 319.539 652.159 317.914 649.672 317.858C649.707 318.398 649.742 318.937 649.777 319.477C651.175 321.888 653.779 324.164 657.321 326.037L652.708 327.233C647.851 330.486 648.707 335.476 646.129 338.533C644.392 340.592 642.741 341.898 641.004 344.262C640.257 345.278 637.791 348 637.791 348.552C637.031 350.896 639.328 351.609 639.328 353.386C639.328 353.695 638.157 356.523 638.157 358.243C638.157 361.936 642.601 362.34 644.383 366.765C645.12 368.596 645.358 370.521 646.109 372.151C646.836 373.728 648.998 375.592 648.998 376.596C649.888 380.987 637.595 381.683 637.595 387.554L637.684 389.705C638.456 391.28 639.229 392.855 640.001 394.431C640.674 396.154 645.533 396.528 648.25 397.669C649.852 398.699 652.977 396.901 655.894 396.901L658.791 396.946C661.033 396.946 662.343 397.824 662.755 397.824C666.193 397.483 670.67 395.107 672.538 395.107L679.31 395.261C681.943 395.261 689.971 402.816 694.491 402.816C694.876 402.816 698.574 401.022 699.866 400.643C701.277 400.229 703.613 399.578 704.754 399.055C705.144 398.876 710.862 393.942 710.997 393.758C709.442 391.435 708.565 388.265 708.293 384.654C708.072 381.733 706.274 376.474 706.274 375.878C706.274 374.928 706.42 375.253 706.734 374.85L706.949 372.167V369.131C706.949 361.612 705.097 356.005 701.303 352.173C699.372 350.223 697.625 348.564 695.423 346.921C693.537 345.514 689.776 343.587 688.731 342.142C685.303 337.402 682.741 333.879 679.96 328.311C678.427 325.241 678.06 323.622 675.825 320.976C673.669 318.423 672.424 317.655 671.532 313.868L666.289 313.565V313.565Z"
      fill="#E0E0E0" />
    <path fill-rule="evenodd" clip-rule="evenodd"
      d="M540.296 201.464V203.15C540.296 203.916 541.688 209.789 541.918 210.637C542.337 212.184 544.345 217.12 544.345 217.657V218.332C544.345 219.361 544.021 219.693 543.67 220.356C544.469 221.549 545.694 221.928 545.694 223.729V225.416C545.694 227.466 542.995 226.442 542.995 229.127V229.801C542.995 232.101 544.345 233.361 544.345 236.211V236.549C544.345 239.284 541.646 238.784 541.646 240.597V240.934C541.646 244.162 544.345 245.803 544.345 249.031V249.706C544.345 250.462 543.403 251.121 542.995 251.73C543.182 252.415 543.677 253.477 547.433 254.282C548.741 254.712 549.872 254.829 551.091 254.766C555.038 254.766 557.585 253.613 561.231 250.494C561.683 250.162 567.939 244.777 568.014 244.653C571.093 240.598 568.7 237.432 573.692 236.209C575.987 236.013 579.85 235.047 583.683 232.706C586.54 230.96 589.237 228.95 592.352 227.543C595.621 226.068 598.365 225.727 601.697 224.061C604.686 222.567 607.184 220.891 610.65 219.731C613.751 219.064 618.256 219.024 622.611 216.982L620.906 214.628L620.587 213.608H619.238C615.545 213.608 610.848 215.633 606.756 215.633H605.406C604.495 215.633 604.476 215.471 603.719 215.295C603.503 214.391 603.382 214.659 603.382 213.946C603.382 210.542 611.006 208.612 614.177 207.873V207.199C613.188 206.968 610.804 206.312 610.804 205.175V203.825C610.804 202.04 612.086 201.514 612.491 199.777C610.854 199.396 609.823 198.765 607.768 198.765H607.43C603.597 198.765 603.919 204.5 601.358 204.5C600.425 204.5 598.426 202.476 597.31 202.476C595.44 202.476 594.907 205.175 592.249 205.175C589.553 205.175 589.217 198.914 589.221 195.72C589.232 188.486 583.815 193.343 583.815 188.307V186.957C583.815 184.479 585.277 185.149 586.177 183.921L586.219 183.516L581.117 182.909C580.374 179.724 581.051 176.162 577.068 176.162H576.393C571.524 176.162 570.645 188.352 561.505 191.973C555.529 194.341 540.296 193.697 540.296 201.464V201.464Z"
      fill="#E0E0E0" />
    <path fill-rule="evenodd" clip-rule="evenodd"
      d="M583.813 361.709C583.138 362.383 585.41 363.388 585.374 366.965C585.351 369.17 585.52 370.757 585.516 373.299C585.504 380.176 589.094 378.63 589.094 381.806C587.583 384.653 583.976 385.542 583.976 388.945L584.088 390.359C584.088 392.18 585.44 392.66 586.174 393.757C586.174 395.662 585.05 401.693 586.769 401.693C590.471 402.514 591.172 400.167 592.584 400.167C593.072 400.486 593.596 401.499 593.596 402.866L593.288 407.341C593.288 408.371 592.651 409.106 592.301 409.768C595.312 414.266 600.542 410.602 602.551 414.399C602.836 414.209 605.099 411.921 605.132 411.63L604.769 407.638L605.741 406.914C606.472 407.404 606.864 407.926 608.103 407.926H608.44C610.205 407.926 608.631 405.832 614.54 406.557C616.502 406.797 620.076 405.511 621.258 404.889C622.879 404.037 624.582 402.624 624.649 400.183C624.775 395.606 626.32 395.069 626.32 393.42V393.083C626.32 390.445 621.597 386.778 621.597 384.649C621.597 382.984 624.633 383.329 624.633 378.914V378.239C624.633 373.342 622.272 373.177 622.272 370.817C622.272 369.782 623.104 369.359 623.958 369.13V367.781C623.958 366.554 621.259 364.07 619.573 364.07H617.549C615.474 364.07 613.306 366.769 612.825 366.769C610.814 366.769 609.179 363.888 608.777 362.383H607.428C606.276 362.383 604.315 365.082 602.03 365.082H600.343C594.301 365.082 592.482 359.347 588.536 359.347L583.578 359.051L583.813 361.709V361.709Z"
      fill="#EDECEC" />
    <path fill-rule="evenodd" clip-rule="evenodd"
      d="M693.117 335.731L693.792 341.467C693.912 342.243 692.222 344.187 691.964 344.674C700.37 350.303 706.949 355.354 706.949 369.512L706.734 374.849C708.032 374.502 712.178 370.142 714.371 370.142H716.732C718.206 370.142 717.957 370.816 719.431 370.816C722.595 370.816 723.296 369.299 723.951 366.566C724.519 364.197 726.515 361.935 726.515 360.359V357.66C726.515 353.525 723.488 352.267 720.78 350.913C716.665 348.855 716.638 348.921 713.448 345.763C711.328 343.664 708.792 342.165 707.654 339.074C705.064 332.036 710.314 335.057 700.539 335.057L699.167 335.19L694.804 334.382C694.413 334.589 693.032 335.182 693.117 335.731V335.731Z"
      fill="#EDECEC" />
    <path fill-rule="evenodd" clip-rule="evenodd"
      d="M634.485 224.391C635.799 225.02 636.778 225.849 636.778 227.103C636.778 227.893 633.247 229.126 632.393 229.126H632.055C631.028 229.126 629.73 227.574 628.94 227.39C625.824 229.477 623.866 233.705 624.742 237.139C624.742 240.572 629.13 242.151 631.299 243.461C632.849 244.397 632.852 248.802 636.574 251.258C638.568 253.17 650.237 259.279 653.775 259.279C655.682 260.246 658.42 258.919 660.822 258.755L656.682 252.404L651.317 252.49L649.26 244.308C646.941 243.767 643.863 243.426 643.863 240.597C643.863 239.81 644.763 238.91 645.55 238.91H646.899C646.258 236.512 643.53 237.545 642.457 234.243C642.193 233.433 640.152 227.225 640.152 227.103C640.152 225.985 641.152 225.201 641.862 224.725L639.404 220.598L634.485 224.391V224.391Z"
      fill="#E0E0E0" />
    <path fill-rule="evenodd" clip-rule="evenodd"
      d="M342.42 278.55C342.4 278.435 342.385 278.31 342.374 278.175C342.114 274.881 339.741 269.839 339.968 266.109C340.088 264.144 339.404 263.165 339.103 261.572C338.974 260.891 338.914 260.097 339.018 259.066C339.24 256.852 337.631 255.957 338.675 252.626C339.685 249.406 337.125 246.227 338.893 241.71C340.393 237.877 336.683 230.994 337.803 224.179C338.059 222.622 338.517 220.172 334.299 222.985C330.56 225.478 328.987 221.971 326.699 223.721C325.775 224.429 324.442 223.238 323.358 223.663C321.361 224.449 320.217 222.735 319.049 222.614C318.295 222.536 317.841 222.491 317.627 222.3C317.594 222.271 317.566 222.238 317.545 222.201C317.357 221.881 317.579 221.256 318.068 219.906C318.774 217.961 318.471 215.24 314.089 214.897C309.664 214.549 311.06 210.475 309.175 210.494C307.943 210.507 307.067 208.733 307.917 207.729C309.095 206.339 307.161 205.884 308.131 203.979C309.107 202.063 307.396 203.573 306.748 201.594C306.509 200.862 304.387 200.492 304.17 201.556C303.821 203.273 301.612 200.777 300.031 203.185C298.703 205.208 299.206 202.385 296.611 203.487C294.862 204.23 294.413 202.497 292.97 203.155C292.658 203.298 292.305 203.333 291.945 203.289C291.692 203.258 291.435 203.188 291.186 203.089C289.731 202.509 288.565 200.932 290.08 200.374C290.593 200.186 289.958 198.41 291.359 197.997C291.902 197.836 292.753 197.881 294.097 198.305C295.841 198.854 294.403 197.345 296.907 196.878C299.399 194.966 293.739 195.713 295.704 194.465C298.362 192.777 295.789 190.17 298.855 191.212C301.849 192.23 302.351 190.158 299.251 189.696C296.756 189.325 299.247 186.564 296.545 186.704C294.622 186.803 293.432 183.671 292.339 182.577C291.322 181.561 294.272 180.285 294.764 178.769C294.85 178.503 294.955 178.2 295.082 177.888C295.771 176.196 297.099 174.251 299.483 176.739C301.722 179.075 304.036 179.155 306.76 179.505C307.103 179.55 307.453 179.598 307.81 179.656C309.6 179.946 311.394 181.114 314.162 181.809C315.574 182.164 316.602 183.044 317.69 184C318.731 184.915 319.828 185.899 321.368 186.559C323.897 187.643 324.3 190.393 326.851 190.01C331.104 189.371 330.921 193.14 334.868 193.991C334.964 194.012 335.053 194.04 335.136 194.074C335.389 194.18 335.588 194.346 335.753 194.554C336.627 195.655 336.542 197.929 338.233 198.534C341.016 199.528 341.91 202.043 343.025 203.847C343.561 204.714 344.149 205.418 345.022 205.708C347.091 206.398 348.315 209.607 347.303 211.371C343.524 217.962 351.551 210.906 354.918 216.072C357.408 219.893 364.285 218.59 363.093 215.419C362.939 215.009 362.75 214.798 362.538 214.692C361.668 214.258 360.425 215.623 359.751 212.262C359.431 210.665 358.499 208.319 364.814 210.56C364.87 210.58 364.925 210.6 364.979 210.621C366.78 211.325 367.591 212.717 369.202 213.239C370.327 213.604 371.091 213.946 371.623 214.292C371.879 214.458 372.081 214.625 372.244 214.795C372.418 214.977 372.548 215.162 372.651 215.356C373.125 216.246 373.032 217.303 374.036 218.865C375.656 221.385 376.385 222.518 379.077 225.142C381.591 227.592 381.188 232.604 385.938 233.803C390.489 234.952 391.311 237.672 396.502 238.411C396.968 238.477 397.352 238.603 397.681 238.778C397.964 238.929 398.206 239.116 398.425 239.335C399.805 240.714 400.279 243.343 404.186 245.885C404.904 246.352 405.495 246.882 406.017 247.434C407.235 248.722 408.083 250.138 409.304 251.189C410.832 252.504 411.782 254.12 412.356 256.131C412.616 257.043 412.799 258.036 412.923 259.12C413.216 261.672 414.299 264.72 413.878 267.464C413.621 269.137 414.894 269.658 414.369 271.466C414.267 271.815 414.099 272.211 413.84 272.674C412.332 275.362 410.795 277.255 408.741 278.558C407.134 279.578 405.209 280.236 402.735 280.632C401.013 280.908 400.068 281.237 398.5 280.783C395.962 280.048 395.16 282.096 393.987 282.802C393.966 282.814 393.946 282.826 393.925 282.839C390.418 284.918 387.201 284.179 385.391 282.06C383.838 280.243 381.039 277.805 381.048 279.572C378.71 281.242 378.224 279.992 375.138 284.703C375.133 284.71 375.128 284.718 375.123 284.726C374.823 285.146 374.171 285.045 373.273 285.226C372.759 285.329 372.166 285.524 371.512 285.959C369.473 287.316 366.779 287.448 364.908 287.145C364.574 287.091 364.267 287.023 363.994 286.946C362.788 286.605 361.723 286.721 360.765 286.934C359.022 287.319 357.632 288.023 356.384 286.874C354.478 285.118 352.047 287.196 350.701 284.851C349.089 282.041 348.142 282.392 347.487 281.887C347.184 281.654 346.943 281.237 346.728 280.242C346.335 278.421 343.484 281.002 342.61 279.187C342.554 279.071 342.506 278.936 342.467 278.781C342.449 278.709 342.434 278.632 342.42 278.55V278.55Z"
      fill="#8DD6FF" />
    <path fill-rule="evenodd" clip-rule="evenodd"
      d="M389.83 180.085C386.346 181.157 385.274 182.229 386.614 185.177C387.954 188.125 392.778 192.681 394.386 190.001C395.994 187.321 398.941 183.569 397.602 182.229C396.262 180.889 389.83 180.085 389.83 180.085Z"
      fill="#F1F8FF" />
  </g>
  <defs>
    <filter id="filter0_d_1_1054" x="0.868286" y="0.906311" width="745.647" height="591.25" filterUnits="userSpaceOnUse"
      color-interpolation-filters="sRGB">
      <feFlood flood-opacity="0" result="BackgroundImageFix" />
      <feColorMatrix in="SourceAlpha" type="matrix" values="0 0 0 0 0 0 0 0 0 0 0 0 0 0 0 0 0 0 127 0"
        result="hardAlpha" />
      <feOffset />
      <feGaussianBlur stdDeviation="10" />
      <feComposite in2="hardAlpha" operator="out" />
      <feColorMatrix type="matrix" values="0 0 0 0 0.2 0 0 0 0 0.2 0 0 0 0 0.2 0 0 0 0.2 0" />
      <feBlend mode="normal" in2="BackgroundImageFix" result="effect1_dropShadow_1_1054" />
      <feBlend mode="normal" in="SourceGraphic" in2="effect1_dropShadow_1_1054" result="shape" />
    </filter>
  </defs>
</svg>
