<svg width="40" viewBox="0 0 240 300" fill="none" xmlns="http://www.w3.org/2000/svg">
  <path
    d="M146.586 6.00051C150.728 6.04848 154.047 9.445 153.999 13.5869L153.745 35.5274C153.697 39.6692 150.3 42.988 146.159 42.94C142.017 42.8921 138.698 39.4955 138.746 35.3537L139 13.4132C139.048 9.2713 142.444 5.95255 146.586 6.00051Z"
    class="svg-color-3-fill" />
  <path
    d="M92.5751 32.1357C89.6675 29.1856 84.9189 29.1511 81.9687 32.0586C79.0186 34.9662 78.9841 39.7148 81.8917 42.665L97.2938 58.2926C100.201 61.2428 104.95 61.2773 107.9 58.3697C110.85 55.4621 110.885 50.7135 107.977 47.7634L92.5751 32.1357Z"
    class="svg-color-3-fill" />
  <path
    d="M190.409 96.5239C190.409 121.311 170.315 141.405 145.528 141.405C120.741 141.405 100.647 121.311 100.647 96.5239C100.647 71.7366 120.741 51.6425 145.528 51.6425C170.315 51.6425 190.409 71.7366 190.409 96.5239Z"
    class="svg-color-3-fill" />
  <path
    d="M236.058 96.524C236.058 100.666 232.7 104.024 228.558 104.024H206.616C202.474 104.024 199.116 100.666 199.116 96.524C199.116 92.3819 202.474 89.024 206.616 89.024H228.558C232.7 89.024 236.058 92.3819 236.058 96.524Z"
    class="svg-color-3-fill" />
  <path
    d="M198.936 160.539C201.865 163.468 206.614 163.468 209.543 160.539C212.472 157.61 212.472 152.862 209.543 149.933L194.027 134.417C191.098 131.489 186.35 131.489 183.421 134.417C180.492 137.346 180.492 142.095 183.421 145.024L198.936 160.539Z"
    class="svg-color-3-fill" />
  <path
    d="M81.3129 149.693C78.3733 152.611 78.3561 157.36 81.2743 160.299C84.1926 163.239 88.9413 163.256 91.8809 160.338L107.452 144.879C110.392 141.961 110.409 137.212 107.491 134.272C104.573 131.333 99.824 131.315 96.8845 134.234L81.3129 149.693Z"
    class="svg-color-3-fill" />
  <path
    d="M55.0002 95.8194C55.0322 91.6774 58.4159 88.3455 62.5579 88.3775L84.4992 88.5469C88.6412 88.5789 91.9731 91.9626 91.9411 96.1046C91.9091 100.247 88.5254 103.578 84.3834 103.546L62.4421 103.377C58.3001 103.345 54.9682 99.9614 55.0002 95.8194Z"
    class="svg-color-3-fill" />
  <path
    d="M210.104 43.8003C213.065 40.9034 213.117 36.155 210.22 33.1943C207.323 30.2336 202.574 30.1818 199.614 33.0787L183.93 48.424C180.97 51.3208 180.918 56.0693 183.815 59.0299C186.712 61.9906 191.46 62.0424 194.421 59.1455L210.104 43.8003Z"
    class="svg-color-3-fill" />
  <path fill-rule="evenodd" clip-rule="evenodd"
    d="M157.836 186.645L46.0441 186.915C45.0948 186.979 44.1321 187.017 43.1693 187.017C20.4421 187.017 2 169.02 2 146.844C2 124.656 22.7474 106.915 45.4746 106.915C49.3393 79.9965 72.419 60 99.6211 60C127.366 60 150.73 80.7785 153.944 108.325C176.522 108.325 198.625 124.707 198.625 146.742C198.625 168.738 180.373 186.594 157.836 186.645Z"
    class="svg-color-8-fill" />
  <path fill-rule="evenodd" clip-rule="evenodd"
    d="M164.406 186.669L59.6548 186.921C58.7653 186.981 57.8632 187.017 56.9611 187.017C35.6653 187.017 18.3848 170.154 18.3848 149.375C18.3848 128.584 37.8254 111.96 59.1211 111.96C62.7424 86.737 84.3685 68 109.857 68C135.854 68 157.747 87.4698 160.759 113.281C181.915 113.281 202.626 128.632 202.626 149.278C202.626 169.889 185.523 186.621 164.406 186.669Z"
    class="svg-color-9-fill" />
  <path
    d="M165.63 224.083C164.348 232.754 156.35 238.754 147.764 237.485C139.179 236.216 133.258 228.159 134.54 219.488C136.537 205.975 153.617 197.884 154.529 191.714C153.652 197.65 167.627 210.57 165.63 224.083Z"
    class="svg-color-6-fill" />
  <path
    d="M76.6298 224.083C75.3483 232.754 67.3497 238.754 58.7644 237.485C50.1792 236.216 44.2583 228.159 45.5398 219.488C47.537 205.975 64.6174 197.884 65.5294 191.714C64.652 197.65 78.627 210.57 76.6298 224.083Z"
    class="svg-color-6-fill" />
  <path
    d="M141.63 277.083C140.348 285.754 132.35 291.754 123.764 290.485C115.179 289.216 109.258 281.159 110.54 272.488C112.537 258.975 129.617 250.884 130.529 244.714C129.652 250.65 143.627 263.57 141.63 277.083Z"
    class="svg-color-6-fill" />
  <circle cx="108" cy="215" r="13" class="svg-color-12-fill" class="svg-color-6-stroke" stroke-width="4" />
  <circle cx="83" cy="272" r="13" class="svg-color-12-fill" class="svg-color-6-stroke" stroke-width="4" />
  <path fill-rule="evenodd" clip-rule="evenodd"
    d="M115.14 100L80.8588 160.846H104.672L68 240L138 154.19L109.434 146.583L115.14 100Z"
    fill="url(#paint0_linear_705_8186)" />
  <defs>
    <linearGradient id="paint0_linear_705_8186" x1="103" y1="100" x2="103" y2="240" gradientUnits="userSpaceOnUse">
      <stop class="svg-color-10-stop" />
      <stop offset="1" class="svg-color-11-stop" />
    </linearGradient>
  </defs>
</svg>
