<svg xmlns="http://www.w3.org/2000/svg" version="1.1" xmlns:xlink="http://www.w3.org/1999/xlink" xmlns:svgjs="http://svgjs.com/svgjs" width="23" height="27"><svg width="23" height="27" viewBox="0 0 23 27" fill="none" xmlns="http://www.w3.org/2000/svg">
  <path fill-rule="evenodd" clip-rule="evenodd" d="M8.59415 1.04806C9.45593 4.18969 9.53074 4.83723 8.94959 5.43907C8.14221 5.46348 7.55898 5.51874 7.03737 5.64383C4.06357 6.35694 1.74168 8.67883 1.02857 11.6526C0.804482 12.5871 0.804482 13.7193 0.804482 15.9838C0.804482 16.7103 0.804482 17.3203 0.811881 17.8445L4.61012 14.5285L5.38267 13.854L6.17154 14.5093L9.62818 17.3806L17.2816 10.0502L17.9957 9.36627L18.8055 9.93366L22.9451 12.834C22.9123 12.3798 22.8598 12.0024 22.7759 11.6526C22.0628 8.67883 19.7409 6.35694 16.7671 5.64383C16.2669 5.52387 15.7099 5.46813 14.953 5.44222C14.17 4.63302 14.9618 2.23756 15.5011 1.04806C14.5589 1.2924 13.7174 1.62498 13.4654 1.80436C13.3335 1.67243 12.98 1.20436 12.6581 0.778045L12.658 0.778019L12.658 0.777996C12.3411 0.358388 12.0548 -0.0207591 12.0404 0.00088377C12.0372 0.00570518 12.0217 0.0334357 11.9964 0.0787375L11.9964 0.0788274C11.7929 0.443652 10.9548 1.94665 10.7608 1.80436C10.4604 1.58407 9.13217 1.04806 8.59415 1.04806ZM23 15.8131L18.2334 12.4735L10.5181 19.8631L9.74221 20.6063L8.91574 19.9198L5.42151 17.0172L1.14572 20.7502C1.97232 23.514 4.21025 25.6459 7.03737 26.3238C7.97184 26.5479 9.10408 26.5479 11.3686 26.5479H12.4359C14.7004 26.5479 15.8326 26.5479 16.7671 26.3238C19.7409 25.6107 22.0628 23.2888 22.7759 20.315C23 19.3805 23 18.2483 23 15.9838C23 15.9262 23 15.8693 23 15.8131Z" fill="#04569C" fill-opacity="0.29"></path>
  <path fill-rule="evenodd" clip-rule="evenodd" d="M7.78967 1.04806C8.65145 4.18969 8.72626 4.83723 8.1451 5.43907C7.33773 5.46348 6.7545 5.51874 6.23289 5.64383C3.25909 6.35694 0.9372 8.67883 0.224085 11.6526C0 12.5871 0 13.7193 0 15.9838C0 17.5611 -3.44726e-09 18.589 0.0757205 19.3835L4.59763 15.4356L8.88074 18.9935L17.3101 10.9199L22.1907 14.3394C22.1782 13.1058 22.1333 12.3276 21.9714 11.6526C21.2583 8.67883 18.9364 6.35694 15.9626 5.64383C15.4624 5.52387 14.9055 5.46813 14.1485 5.44222C13.3655 4.63302 14.1573 2.23756 14.6967 1.04806C13.7544 1.2924 12.913 1.62498 12.6609 1.80436C12.529 1.67243 12.1755 1.20436 11.8536 0.778045L11.8536 0.778019L11.8535 0.777996C11.5367 0.358388 11.2503 -0.0207591 11.2359 0.00088377C11.2327 0.00570518 11.2172 0.0334357 11.192 0.0787375L11.1919 0.0788274C10.9885 0.443652 10.1503 1.94665 9.95628 1.80436C9.65595 1.58407 8.32769 1.04806 7.78967 1.04806Z" fill="#04569C"></path>
</svg><style>@media (prefers-color-scheme: light) { :root { filter: none; } }
@media (prefers-color-scheme: dark) { :root { filter: contrast(0.7407407407407407) brightness(2); } }
</style></svg>