<svg width="20" viewBox="0 0 9 9" fill="#005fcc" fill-opacity="0.7" xmlns="http://www.w3.org/2000/svg">
  <path
    d="M0.625488 4C0.349346 4 0.125488 4.22386 0.125488 4.5C0.125488 4.77614 0.349346 5 0.625488 5V4ZM8.72807 4.85355C8.92333 4.65829 8.92333 4.34171 8.72807 4.14645L5.54608 0.964466C5.35082 0.769204 5.03424 0.769204 4.83898 0.964466C4.64372 1.15973 4.64372 1.47631 4.83898 1.67157L7.66741 4.5L4.83898 7.32843C4.64372 7.52369 4.64372 7.84027 4.83898 8.03553C5.03424 8.2308 5.35082 8.2308 5.54608 8.03553L8.72807 4.85355ZM0.625488 5H3.87451V4H0.625488V5ZM3.87451 5H8.37451V4H3.87451V5Z" />
</svg>
