<svg width="150" height="27" viewBox="0 0 150 27" fill="none" xmlns="http://www.w3.org/2000/svg">
  <path
    d="M29.0754 22C28.9421 22 28.8287 21.9533 28.7354 21.86C28.6421 21.7667 28.5954 21.6533 28.5954 21.52V12.08C28.5954 11.9467 28.6421 11.8333 28.7354 11.74C28.8287 11.6467 28.9421 11.6 29.0754 11.6H30.6354C30.7687 11.6 30.8821 11.6467 30.9754 11.74C31.0687 11.8333 31.1154 11.9467 31.1154 12.08V12.76C31.3954 12.3867 31.7687 12.0733 32.2354 11.82C32.7154 11.5533 33.2821 11.4133 33.9354 11.4C35.4554 11.3733 36.5154 11.9667 37.1154 13.18C37.4221 12.6467 37.8621 12.22 38.4354 11.9C39.0221 11.5667 39.6687 11.4 40.3754 11.4C41.0687 11.4 41.6954 11.56 42.2554 11.88C42.8287 12.2 43.2754 12.6867 43.5954 13.34C43.9287 13.98 44.0954 14.7933 44.0954 15.78V21.52C44.0954 21.6533 44.0487 21.7667 43.9554 21.86C43.8621 21.9533 43.7487 22 43.6154 22H41.9754C41.8421 22 41.7287 21.9533 41.6354 21.86C41.5421 21.7667 41.4954 21.6533 41.4954 21.52V15.94C41.4954 15.34 41.4087 14.8667 41.2354 14.52C41.0621 14.16 40.8287 13.9067 40.5354 13.76C40.2421 13.6133 39.9154 13.54 39.5554 13.54C39.2621 13.54 38.9687 13.6133 38.6754 13.76C38.3821 13.9067 38.1421 14.16 37.9554 14.52C37.7687 14.8667 37.6754 15.34 37.6754 15.94V21.52C37.6754 21.6533 37.6287 21.7667 37.5354 21.86C37.4421 21.9533 37.3287 22 37.1954 22H35.5554C35.4087 22 35.2887 21.9533 35.1954 21.86C35.1154 21.7667 35.0754 21.6533 35.0754 21.52V15.94C35.0754 15.34 34.9821 14.8667 34.7954 14.52C34.6087 14.16 34.3687 13.9067 34.0754 13.76C33.7821 13.6133 33.4687 13.54 33.1354 13.54C32.8287 13.54 32.5287 13.62 32.2354 13.78C31.9421 13.9267 31.7021 14.1733 31.5154 14.52C31.3287 14.8667 31.2354 15.34 31.2354 15.94V21.52C31.2354 21.6533 31.1887 21.7667 31.0954 21.86C31.0021 21.9533 30.8887 22 30.7554 22H29.0754ZM51.1223 22.2C49.6423 22.2 48.4689 21.7733 47.6023 20.92C46.7356 20.0667 46.2689 18.8533 46.2023 17.28C46.1889 17.1467 46.1823 16.98 46.1823 16.78C46.1823 16.5667 46.1889 16.4 46.2023 16.28C46.2556 15.28 46.4823 14.4133 46.8823 13.68C47.2956 12.9467 47.8623 12.3867 48.5823 12C49.3023 11.6 50.1489 11.4 51.1223 11.4C52.2023 11.4 53.1089 11.6267 53.8423 12.08C54.5756 12.52 55.1289 13.14 55.5023 13.94C55.8756 14.7267 56.0623 15.64 56.0623 16.68V17.1C56.0623 17.2333 56.0156 17.3467 55.9223 17.44C55.8289 17.5333 55.7089 17.58 55.5623 17.58H48.9223C48.9223 17.58 48.9223 17.6 48.9223 17.64C48.9223 17.68 48.9223 17.7133 48.9223 17.74C48.9356 18.2067 49.0223 18.64 49.1823 19.04C49.3556 19.4267 49.6023 19.74 49.9223 19.98C50.2556 20.22 50.6489 20.34 51.1023 20.34C51.4756 20.34 51.7889 20.2867 52.0423 20.18C52.2956 20.06 52.5023 19.9267 52.6623 19.78C52.8223 19.6333 52.9356 19.5133 53.0023 19.42C53.1223 19.26 53.2156 19.1667 53.2823 19.14C53.3623 19.1 53.4756 19.08 53.6223 19.08H55.3423C55.4756 19.08 55.5823 19.12 55.6623 19.2C55.7556 19.28 55.7956 19.38 55.7823 19.5C55.7689 19.7133 55.6556 19.9733 55.4423 20.28C55.2423 20.5867 54.9489 20.8867 54.5623 21.18C54.1756 21.4733 53.6889 21.72 53.1023 21.92C52.5289 22.1067 51.8689 22.2 51.1223 22.2ZM48.9223 15.9H53.3423V15.84C53.3423 15.32 53.2556 14.8667 53.0823 14.48C52.9089 14.0933 52.6556 13.7867 52.3223 13.56C51.9889 13.3333 51.5889 13.22 51.1223 13.22C50.6556 13.22 50.2556 13.3333 49.9223 13.56C49.5889 13.7867 49.3356 14.0933 49.1623 14.48C49.0023 14.8667 48.9223 15.32 48.9223 15.84V15.9ZM62.8462 22C62.0462 22 61.3728 21.86 60.8262 21.58C60.2795 21.3 59.8728 20.8867 59.6062 20.34C59.3395 19.78 59.2062 19.0867 59.2062 18.26V13.72H57.6262C57.4928 13.72 57.3795 13.6733 57.2862 13.58C57.1928 13.4867 57.1462 13.3733 57.1462 13.24V12.08C57.1462 11.9467 57.1928 11.8333 57.2862 11.74C57.3795 11.6467 57.4928 11.6 57.6262 11.6H59.2062V8.28C59.2062 8.14667 59.2462 8.03333 59.3262 7.94C59.4195 7.84667 59.5395 7.8 59.6862 7.8H61.3062C61.4395 7.8 61.5528 7.84667 61.6462 7.94C61.7395 8.03333 61.7862 8.14667 61.7862 8.28V11.6H64.2862C64.4195 11.6 64.5328 11.6467 64.6262 11.74C64.7195 11.8333 64.7662 11.9467 64.7662 12.08V13.24C64.7662 13.3733 64.7195 13.4867 64.6262 13.58C64.5328 13.6733 64.4195 13.72 64.2862 13.72H61.7862V18.06C61.7862 18.6067 61.8795 19.0333 62.0662 19.34C62.2662 19.6467 62.6062 19.8 63.0862 19.8H64.4662C64.5995 19.8 64.7128 19.8467 64.8062 19.94C64.8995 20.0333 64.9462 20.1467 64.9462 20.28V21.52C64.9462 21.6533 64.8995 21.7667 64.8062 21.86C64.7128 21.9533 64.5995 22 64.4662 22H62.8462ZM71.2004 22.2C69.7204 22.2 68.5471 21.7733 67.6804 20.92C66.8137 20.0667 66.3471 18.8533 66.2804 17.28C66.2671 17.1467 66.2604 16.98 66.2604 16.78C66.2604 16.5667 66.2671 16.4 66.2804 16.28C66.3337 15.28 66.5604 14.4133 66.9604 13.68C67.3737 12.9467 67.9404 12.3867 68.6604 12C69.3804 11.6 70.2271 11.4 71.2004 11.4C72.2804 11.4 73.1871 11.6267 73.9204 12.08C74.6537 12.52 75.2071 13.14 75.5804 13.94C75.9537 14.7267 76.1404 15.64 76.1404 16.68V17.1C76.1404 17.2333 76.0937 17.3467 76.0004 17.44C75.9071 17.5333 75.7871 17.58 75.6404 17.58H69.0004C69.0004 17.58 69.0004 17.6 69.0004 17.64C69.0004 17.68 69.0004 17.7133 69.0004 17.74C69.0137 18.2067 69.1004 18.64 69.2604 19.04C69.4337 19.4267 69.6804 19.74 70.0004 19.98C70.3337 20.22 70.7271 20.34 71.1804 20.34C71.5537 20.34 71.8671 20.2867 72.1204 20.18C72.3737 20.06 72.5804 19.9267 72.7404 19.78C72.9004 19.6333 73.0137 19.5133 73.0804 19.42C73.2004 19.26 73.2937 19.1667 73.3604 19.14C73.4404 19.1 73.5537 19.08 73.7004 19.08H75.4204C75.5537 19.08 75.6604 19.12 75.7404 19.2C75.8337 19.28 75.8737 19.38 75.8604 19.5C75.8471 19.7133 75.7337 19.9733 75.5204 20.28C75.3204 20.5867 75.0271 20.8867 74.6404 21.18C74.2537 21.4733 73.7671 21.72 73.1804 21.92C72.6071 22.1067 71.9471 22.2 71.2004 22.2ZM69.0004 15.9H73.4204V15.84C73.4204 15.32 73.3337 14.8667 73.1604 14.48C72.9871 14.0933 72.7337 13.7867 72.4004 13.56C72.0671 13.3333 71.6671 13.22 71.2004 13.22C70.7337 13.22 70.3337 13.3333 70.0004 13.56C69.6671 13.7867 69.4137 14.0933 69.2404 14.48C69.0804 14.8667 69.0004 15.32 69.0004 15.84V15.9ZM82.8634 22.2C81.7967 22.2 80.8967 22.0133 80.1634 21.64C79.4434 21.2667 78.89 20.74 78.5034 20.06C78.13 19.38 77.9167 18.5867 77.8634 17.68C77.85 17.44 77.8434 17.1467 77.8434 16.8C77.8434 16.4533 77.85 16.16 77.8634 15.92C77.9167 15 78.1367 14.2067 78.5234 13.54C78.9234 12.86 79.4834 12.3333 80.2034 11.96C80.9367 11.5867 81.8234 11.4 82.8634 11.4C83.9034 11.4 84.7834 11.5867 85.5034 11.96C86.2367 12.3333 86.7967 12.86 87.1834 13.54C87.5834 14.2067 87.81 15 87.8634 15.92C87.8767 16.16 87.8834 16.4533 87.8834 16.8C87.8834 17.1467 87.8767 17.44 87.8634 17.68C87.81 18.5867 87.59 19.38 87.2034 20.06C86.83 20.74 86.2767 21.2667 85.5434 21.64C84.8234 22.0133 83.93 22.2 82.8634 22.2ZM82.8634 20.22C83.57 20.22 84.1167 20 84.5034 19.56C84.89 19.1067 85.1034 18.4467 85.1434 17.58C85.1567 17.38 85.1634 17.12 85.1634 16.8C85.1634 16.48 85.1567 16.22 85.1434 16.02C85.1034 15.1667 84.89 14.5133 84.5034 14.06C84.1167 13.6067 83.57 13.38 82.8634 13.38C82.1567 13.38 81.61 13.6067 81.2234 14.06C80.8367 14.5133 80.6234 15.1667 80.5834 16.02C80.57 16.22 80.5634 16.48 80.5634 16.8C80.5634 17.12 80.57 17.38 80.5834 17.58C80.6234 18.4467 80.8367 19.1067 81.2234 19.56C81.61 20 82.1567 20.22 82.8634 20.22ZM93.1193 22.2C92.426 22.2 91.7993 22.0667 91.2393 21.8C90.6793 21.52 90.2326 21.1533 89.8993 20.7C89.5793 20.2333 89.4193 19.7133 89.4193 19.14C89.4193 18.2067 89.7926 17.4667 90.5393 16.92C91.2993 16.36 92.2993 15.9867 93.5393 15.8L96.2793 15.4V14.98C96.2793 14.42 96.1393 13.9867 95.8593 13.68C95.5793 13.3733 95.0993 13.22 94.4193 13.22C93.9393 13.22 93.546 13.32 93.2393 13.52C92.946 13.7067 92.726 13.96 92.5793 14.28C92.4726 14.4533 92.3193 14.54 92.1193 14.54H90.5393C90.3926 14.54 90.2793 14.5 90.1993 14.42C90.1326 14.34 90.0993 14.2333 90.0993 14.1C90.1126 13.8867 90.1993 13.6267 90.3593 13.32C90.5193 13.0133 90.7726 12.72 91.1193 12.44C91.466 12.1467 91.9126 11.9 92.4593 11.7C93.006 11.5 93.666 11.4 94.4393 11.4C95.2793 11.4 95.986 11.5067 96.5593 11.72C97.146 11.92 97.6126 12.1933 97.9593 12.54C98.306 12.8867 98.5593 13.2933 98.7193 13.76C98.8793 14.2267 98.9593 14.72 98.9593 15.24V21.52C98.9593 21.6533 98.9126 21.7667 98.8193 21.86C98.726 21.9533 98.6126 22 98.4793 22H96.8593C96.7126 22 96.5926 21.9533 96.4993 21.86C96.4193 21.7667 96.3793 21.6533 96.3793 21.52V20.74C96.206 20.9933 95.9726 21.2333 95.6793 21.46C95.386 21.6733 95.026 21.8533 94.5993 22C94.186 22.1333 93.6926 22.2 93.1193 22.2ZM93.7993 20.3C94.266 20.3 94.686 20.2 95.0593 20C95.446 19.8 95.746 19.4933 95.9593 19.08C96.186 18.6533 96.2993 18.12 96.2993 17.48V17.06L94.2993 17.38C93.5126 17.5 92.926 17.6933 92.5393 17.96C92.1526 18.2267 91.9593 18.5533 91.9593 18.94C91.9593 19.2333 92.046 19.4867 92.2193 19.7C92.406 19.9 92.6393 20.0533 92.9193 20.16C93.1993 20.2533 93.4926 20.3 93.7993 20.3ZM102.005 22C101.872 22 101.758 21.9533 101.665 21.86C101.572 21.7667 101.525 21.6533 101.525 21.52V12.1C101.525 11.9533 101.572 11.8333 101.665 11.74C101.758 11.6467 101.872 11.6 102.005 11.6H103.625C103.758 11.6 103.872 11.6467 103.965 11.74C104.072 11.8333 104.125 11.9533 104.125 12.1V12.92C104.432 12.4933 104.825 12.1667 105.305 11.94C105.798 11.7133 106.365 11.6 107.005 11.6H107.825C107.972 11.6 108.085 11.6467 108.165 11.74C108.258 11.8333 108.305 11.9467 108.305 12.08V13.52C108.305 13.6533 108.258 13.7667 108.165 13.86C108.085 13.9533 107.972 14 107.825 14H106.265C105.625 14 105.125 14.18 104.765 14.54C104.418 14.9 104.245 15.3933 104.245 16.02V21.52C104.245 21.6533 104.198 21.7667 104.105 21.86C104.012 21.9533 103.892 22 103.745 22H102.005ZM110.345 22C110.212 22 110.098 21.9533 110.005 21.86C109.912 21.7667 109.865 21.6533 109.865 21.52V12.08C109.865 11.9467 109.912 11.8333 110.005 11.74C110.098 11.6467 110.212 11.6 110.345 11.6H111.905C112.038 11.6 112.152 11.6467 112.245 11.74C112.338 11.8333 112.385 11.9467 112.385 12.08V12.76C112.665 12.3867 113.038 12.0733 113.505 11.82C113.985 11.5533 114.552 11.4133 115.205 11.4C116.725 11.3733 117.785 11.9667 118.385 13.18C118.692 12.6467 119.132 12.22 119.705 11.9C120.292 11.5667 120.938 11.4 121.645 11.4C122.338 11.4 122.965 11.56 123.525 11.88C124.098 12.2 124.545 12.6867 124.865 13.34C125.198 13.98 125.365 14.7933 125.365 15.78V21.52C125.365 21.6533 125.318 21.7667 125.225 21.86C125.132 21.9533 125.018 22 124.885 22H123.245C123.112 22 122.998 21.9533 122.905 21.86C122.812 21.7667 122.765 21.6533 122.765 21.52V15.94C122.765 15.34 122.678 14.8667 122.505 14.52C122.332 14.16 122.098 13.9067 121.805 13.76C121.512 13.6133 121.185 13.54 120.825 13.54C120.532 13.54 120.238 13.6133 119.945 13.76C119.652 13.9067 119.412 14.16 119.225 14.52C119.038 14.8667 118.945 15.34 118.945 15.94V21.52C118.945 21.6533 118.898 21.7667 118.805 21.86C118.712 21.9533 118.598 22 118.465 22H116.825C116.678 22 116.558 21.9533 116.465 21.86C116.385 21.7667 116.345 21.6533 116.345 21.52V15.94C116.345 15.34 116.252 14.8667 116.065 14.52C115.878 14.16 115.638 13.9067 115.345 13.76C115.052 13.6133 114.738 13.54 114.405 13.54C114.098 13.54 113.798 13.62 113.505 13.78C113.212 13.9267 112.972 14.1733 112.785 14.52C112.598 14.8667 112.505 15.34 112.505 15.94V21.52C112.505 21.6533 112.458 21.7667 112.365 21.86C112.272 21.9533 112.158 22 112.025 22H110.345Z"
    fill="black" />
  <path
    d="M127.922 22C127.828 22 127.754 21.972 127.698 21.916C127.642 21.86 127.614 21.7853 127.614 21.692V21.02C127.614 20.9267 127.642 20.852 127.698 20.796C127.754 20.7307 127.828 20.698 127.922 20.698H128.594C128.687 20.698 128.762 20.7307 128.818 20.796C128.883 20.852 128.916 20.9267 128.916 21.02V21.692C128.916 21.7853 128.883 21.86 128.818 21.916C128.762 21.972 128.687 22 128.594 22H127.922ZM133.022 22.14C132.574 22.14 132.158 22.0467 131.776 21.86C131.402 21.6733 131.099 21.426 130.866 21.118C130.632 20.8007 130.516 20.446 130.516 20.054C130.516 19.4193 130.772 18.9107 131.286 18.528C131.799 18.1453 132.466 17.898 133.288 17.786L135.5 17.478V16.988C135.5 16.4933 135.346 16.106 135.038 15.826C134.739 15.5367 134.258 15.392 133.596 15.392C133.11 15.392 132.718 15.49 132.42 15.686C132.121 15.8727 131.916 16.12 131.804 16.428C131.757 16.568 131.668 16.638 131.538 16.638H131.314C131.202 16.638 131.122 16.61 131.076 16.554C131.029 16.4887 131.006 16.414 131.006 16.33C131.006 16.1993 131.052 16.036 131.146 15.84C131.248 15.644 131.402 15.4527 131.608 15.266C131.813 15.07 132.079 14.9067 132.406 14.776C132.732 14.6453 133.129 14.58 133.596 14.58C134.146 14.58 134.599 14.6547 134.954 14.804C135.318 14.9533 135.598 15.1493 135.794 15.392C135.999 15.6253 136.144 15.8867 136.228 16.176C136.312 16.4653 136.354 16.75 136.354 17.03V21.692C136.354 21.7853 136.326 21.86 136.27 21.916C136.214 21.972 136.139 22 136.046 22H135.808C135.714 22 135.64 21.972 135.584 21.916C135.528 21.86 135.5 21.7853 135.5 21.692V21.034C135.388 21.202 135.229 21.37 135.024 21.538C134.818 21.706 134.552 21.8507 134.226 21.972C133.908 22.084 133.507 22.14 133.022 22.14ZM133.162 21.328C133.591 21.328 133.983 21.2347 134.338 21.048C134.692 20.8613 134.972 20.5767 135.178 20.194C135.392 19.802 135.5 19.312 135.5 18.724V18.248L133.694 18.5C132.928 18.6027 132.35 18.78 131.958 19.032C131.566 19.284 131.37 19.6013 131.37 19.984C131.37 20.292 131.458 20.544 131.636 20.74C131.813 20.936 132.037 21.0853 132.308 21.188C132.588 21.2813 132.872 21.328 133.162 21.328ZM138.876 22C138.782 22 138.708 21.972 138.652 21.916C138.596 21.86 138.568 21.7853 138.568 21.692V15.028C138.568 14.9347 138.596 14.86 138.652 14.804C138.708 14.748 138.782 14.72 138.876 14.72H139.114C139.207 14.72 139.282 14.748 139.338 14.804C139.394 14.86 139.422 14.9347 139.422 15.028V15.518C139.655 15.2193 139.93 14.9907 140.248 14.832C140.574 14.664 140.966 14.58 141.424 14.58C142.469 14.58 143.216 15.0187 143.664 15.896C143.878 15.4947 144.191 15.1773 144.602 14.944C145.022 14.7013 145.502 14.58 146.044 14.58C146.538 14.58 146.982 14.6967 147.374 14.93C147.775 15.154 148.088 15.49 148.312 15.938C148.545 16.386 148.662 16.946 148.662 17.618V21.692C148.662 21.7853 148.634 21.86 148.578 21.916C148.522 21.972 148.447 22 148.354 22H148.116C148.022 22 147.948 21.972 147.892 21.916C147.836 21.86 147.808 21.7853 147.808 21.692V17.758C147.808 17.142 147.719 16.666 147.542 16.33C147.364 15.9847 147.131 15.742 146.842 15.602C146.552 15.462 146.24 15.392 145.904 15.392C145.624 15.392 145.339 15.462 145.05 15.602C144.76 15.742 144.518 15.9847 144.322 16.33C144.135 16.666 144.042 17.142 144.042 17.758V21.692C144.042 21.7853 144.014 21.86 143.958 21.916C143.902 21.972 143.827 22 143.734 22H143.496C143.402 22 143.328 21.972 143.272 21.916C143.216 21.86 143.188 21.7853 143.188 21.692V17.758C143.188 17.142 143.094 16.666 142.908 16.33C142.721 15.9847 142.483 15.742 142.194 15.602C141.904 15.462 141.601 15.392 141.284 15.392C141.004 15.392 140.719 15.462 140.43 15.602C140.14 15.742 139.898 15.9847 139.702 16.33C139.515 16.666 139.422 17.1373 139.422 17.744V21.692C139.422 21.7853 139.394 21.86 139.338 21.916C139.282 21.972 139.207 22 139.114 22H138.876Z"
    fill="#B3B3B3" />
  <path fill-rule="evenodd" clip-rule="evenodd"
    d="M8.59411 1.04806C9.45589 4.18969 9.5307 4.83723 8.94955 5.43907C8.14218 5.46348 7.55894 5.51874 7.03733 5.64383C4.06353 6.35694 1.74165 8.67883 1.02853 11.6526C0.804443 12.5871 0.804443 13.7193 0.804443 15.9838C0.804443 16.7103 0.804443 17.3203 0.811843 17.8445L4.61008 14.5285L5.38263 13.854L6.1715 14.5093L9.62814 17.3806L17.2816 10.0502L17.9957 9.36627L18.8055 9.93366L22.9451 12.834C22.9122 12.3798 22.8597 12.0024 22.7759 11.6526C22.0628 8.67883 19.7409 6.35694 16.7671 5.64383C16.2668 5.52387 15.7099 5.46813 14.953 5.44222C14.1699 4.63302 14.9617 2.23756 15.5011 1.04806C14.5588 1.2924 13.7174 1.62498 13.4654 1.80436C13.3335 1.67243 12.98 1.20436 12.658 0.778045L12.658 0.778019L12.658 0.777996C12.3411 0.358388 12.0548 -0.0207591 12.0403 0.00088377C12.0371 0.00570518 12.0217 0.0334357 11.9964 0.0787375L11.9963 0.0788274C11.7929 0.443652 10.9547 1.94665 10.7607 1.80436C10.4604 1.58407 9.13213 1.04806 8.59411 1.04806ZM23 15.8131L18.2334 12.4735L10.5181 19.8631L9.74218 20.6063L8.91571 19.9198L5.42147 17.0172L1.14568 20.7502C1.97229 23.514 4.21021 25.6459 7.03733 26.3238C7.9718 26.5479 9.10404 26.5479 11.3685 26.5479H12.4359C14.7004 26.5479 15.8326 26.5479 16.7671 26.3238C19.7409 25.6107 22.0628 23.2888 22.7759 20.315C23 19.3805 23 18.2483 23 15.9838C23 15.9262 23 15.8693 23 15.8131Z"
    fill="#04569C" fill-opacity="0.29" />
  <path fill-rule="evenodd" clip-rule="evenodd"
    d="M7.78967 1.04806C8.65145 4.18969 8.72626 4.83723 8.1451 5.43907C7.33773 5.46348 6.7545 5.51874 6.23289 5.64383C3.25909 6.35694 0.9372 8.67883 0.224085 11.6526C0 12.5871 0 13.7193 0 15.9838C0 17.5611 -3.44726e-09 18.589 0.0757205 19.3835L4.59763 15.4356L8.88074 18.9935L17.3101 10.9199L22.1907 14.3394C22.1782 13.1058 22.1333 12.3276 21.9714 11.6526C21.2583 8.67883 18.9364 6.35694 15.9626 5.64383C15.4624 5.52387 14.9055 5.46813 14.1485 5.44222C13.3655 4.63302 14.1573 2.23756 14.6967 1.04806C13.7544 1.2924 12.913 1.62498 12.6609 1.80436C12.529 1.67243 12.1755 1.20436 11.8536 0.778045L11.8536 0.778019L11.8535 0.777996C11.5367 0.358388 11.2503 -0.0207591 11.2359 0.00088377C11.2327 0.00570518 11.2172 0.0334357 11.192 0.0787375L11.1919 0.0788274C10.9885 0.443652 10.1503 1.94665 9.95628 1.80436C9.65595 1.58407 8.32769 1.04806 7.78967 1.04806Z"
    fill="#04569C" />
</svg>
