<svg width="20" viewBox="0 0 23 21" fill="none" xmlns="http://www.w3.org/2000/svg">
  <path
    d="M3.41394 10.293C3.41394 8.45501 3.95897 6.6583 4.98009 5.13008C6.00122 3.60186 7.45259 2.41075 9.15066 1.70739C10.8487 1.00402 12.7172 0.81999 14.5199 1.17856C16.3226 1.53713 17.9784 2.42221 19.2781 3.72185C20.5777 5.0215 21.4628 6.67735 21.8214 8.48002C22.1799 10.2827 21.9959 12.1512 21.2925 13.8493C20.5892 15.5473 19.3981 16.9987 17.8698 18.0198C16.3416 19.041 14.5449 19.586 12.7069 19.586"
    class="svg-color-1-stroke" stroke-width="2" stroke-linecap="round" stroke-linejoin="round" />
  <path d="M0.999876 9.83454L3.56866 12.4033L6.13745 9.83454" class="svg-color-1-stroke" stroke-width="2"
    stroke-linecap="round" stroke-linejoin="round" />
  <path d="M12.4673 6.05469V10.0535L17.2526 12.1094" class="svg-color-1-stroke" stroke-width="2" stroke-linecap="round"
    stroke-linejoin="round" />
</svg>
