<svg width="20" viewBox="0 0 19 16" fill="none" xmlns="http://www.w3.org/2000/svg">
  <mask id="path-1-inside-1_13_20025" class="svg-color-12-fill">
    <path fill-rule="evenodd" clip-rule="evenodd"
      d="M8.66962 0.232176C9.02049 -0.0233555 9.49614 -0.0233556 9.84702 0.232176L18.1034 6.24509C18.886 6.81504 18.4829 8.05344 17.5147 8.05344H15.9179V14.8034C15.9179 15.3557 15.4701 15.8034 14.9179 15.8034H10.8407V10.8034H7.79459V15.8034H3.718C3.16571 15.8034 2.718 15.3557 2.718 14.8034V8.05344H1.00192C0.033774 8.05344 -0.369386 6.81504 0.413217 6.24509L8.66962 0.232176Z" />
  </mask>
  <path fill-rule="evenodd" clip-rule="evenodd"
    d="M8.66962 0.232176C9.02049 -0.0233555 9.49614 -0.0233556 9.84702 0.232176L18.1034 6.24509C18.886 6.81504 18.4829 8.05344 17.5147 8.05344H15.9179V14.8034C15.9179 15.3557 15.4701 15.8034 14.9179 15.8034H10.8407V10.8034H7.79459V15.8034H3.718C3.16571 15.8034 2.718 15.3557 2.718 14.8034V8.05344H1.00192C0.033774 8.05344 -0.369386 6.81504 0.413217 6.24509L8.66962 0.232176Z"
    class="svg-color-4-fill" />
  <path
    d="M9.84702 0.232176L9.25832 1.04053L9.25832 1.04053L9.84702 0.232176ZM8.66962 0.232176L9.25832 1.04053L9.25832 1.04053L8.66962 0.232176ZM18.1034 6.24509L18.6921 5.43674V5.43674L18.1034 6.24509ZM15.9179 8.05344V7.05344H14.9179V8.05344H15.9179ZM10.8407 15.8034H9.84071V16.8034H10.8407V15.8034ZM10.8407 10.8034H11.8407V9.80344H10.8407V10.8034ZM7.79459 10.8034V9.80344H6.79459V10.8034H7.79459ZM7.79459 15.8034V16.8034H8.79459V15.8034H7.79459ZM2.718 8.05344H3.718V7.05344H2.718V8.05344ZM0.413217 6.24509L1.00192 7.05344L0.413217 6.24509ZM10.4357 -0.576175C9.73397 -1.08724 8.78266 -1.08724 8.08092 -0.576175L9.25832 1.04053L9.25832 1.04053L10.4357 -0.576175ZM18.6921 5.43674L10.4357 -0.576175L9.25832 1.04053L17.5147 7.05344L18.6921 5.43674ZM17.5147 9.05344C19.451 9.05344 20.2573 6.57664 18.6921 5.43674L17.5147 7.05344V9.05344ZM15.9179 9.05344H17.5147V7.05344H15.9179V9.05344ZM16.9179 14.8034V8.05344H14.9179V14.8034H16.9179ZM14.9179 16.8034C16.0224 16.8034 16.9179 15.908 16.9179 14.8034H14.9179V14.8034V16.8034ZM10.8407 16.8034H14.9179V14.8034H10.8407V16.8034ZM9.84071 10.8034V15.8034H11.8407V10.8034H9.84071ZM7.79459 11.8034H10.8407V9.80344H7.79459V11.8034ZM8.79459 15.8034V10.8034H6.79459V15.8034H8.79459ZM3.718 16.8034H7.79459V14.8034H3.718V16.8034ZM1.718 14.8034C1.718 15.908 2.61343 16.8034 3.718 16.8034V14.8034H3.718H1.718ZM1.718 8.05344V14.8034H3.718V8.05344H1.718ZM1.00192 9.05344H2.718V7.05344H1.00192V9.05344ZM-0.175483 5.43674C-1.7407 6.57664 -0.934364 9.05344 1.00192 9.05344V7.05344H1.00192L-0.175483 5.43674ZM8.08092 -0.576175L-0.175483 5.43674L1.00192 7.05344L9.25832 1.04053L8.08092 -0.576175Z"
    class="svg-color-1-fill" mask="url(#path-1-inside-1_13_20025)" />
</svg>
