<svg width="209" height="19" viewBox="0 0 209 19" fill="none" xmlns="http://www.w3.org/2000/svg">
  <path fill-rule="evenodd" clip-rule="evenodd"
    d="M0 4.96521H4.53447V17.9208H0V14.682L3.18045 11.4353L0 8.19635V4.96521Z" fill="#008DD2" />
  <path
    d="M6.62012 4.87779H11.2065V6.74341C11.8672 5.95959 12.5344 5.40251 13.2081 5.07214C13.8753 4.74177 14.6915 4.57982 15.6437 4.57982C16.6672 4.57982 17.477 4.7612 18.0729 5.12395C18.6689 5.48671 19.1547 6.02437 19.5369 6.74341C20.3078 5.90777 21.0074 5.33125 21.6422 5.03328C22.277 4.72882 23.0609 4.57982 23.9937 4.57982C25.367 4.57982 26.4423 4.98792 27.2131 5.8106C27.984 6.62681 28.3727 7.90942 28.3727 9.64548V17.7168H23.4495V10.3839C23.4495 9.79446 23.3329 9.36046 23.1062 9.08191C22.7823 8.63494 22.3677 8.4147 21.8819 8.4147C21.3054 8.4147 20.8389 8.62846 20.4827 9.04305C20.1329 9.4641 19.958 10.1443 19.958 11.0706V17.7168H15.0348V10.6431C15.0348 10.0795 15.0025 9.69083 14.9312 9.49002C14.8276 9.16612 14.6461 8.907 14.387 8.71267C14.1344 8.51186 13.83 8.4147 13.4802 8.4147C12.9166 8.4147 12.4502 8.62846 12.0874 9.05599C11.7247 9.48353 11.5432 10.1831 11.5432 11.1613V17.7168H6.62012V4.87779ZM44.5801 12.5216H34.7079C34.7986 13.3119 35.0059 13.9014 35.3492 14.2901C35.8221 14.8472 36.444 15.1192 37.2148 15.1192C37.7007 15.1192 38.1606 15.0026 38.5946 14.7629C38.8602 14.6075 39.1517 14.3419 39.4562 13.9597L44.3081 14.4002C43.5631 15.6893 42.6692 16.6156 41.6198 17.1727C40.5768 17.7363 39.0675 18.0148 37.1112 18.0148C35.4076 18.0148 34.0731 17.7751 33.0949 17.2958C32.1168 16.8164 31.3135 16.052 30.6658 15.0091C30.0309 13.9597 29.7071 12.7354 29.7071 11.3232C29.7071 9.31511 30.3483 7.6827 31.6374 6.44543C32.92 5.20169 34.695 4.57982 36.9623 4.57982C38.802 4.57982 40.2465 4.85837 41.3153 5.41546C42.3777 5.97256 43.1874 6.7758 43.7445 7.83816C44.3016 8.89404 44.5801 10.2738 44.5801 11.9645V12.5216ZM39.5792 10.1702C39.4886 9.21794 39.2295 8.53128 38.8084 8.1167C38.3938 7.70212 37.8497 7.50132 37.1695 7.50132C36.3857 7.50132 35.7573 7.81226 35.2844 8.43413C34.9929 8.8228 34.7986 9.39932 34.7209 10.1702H39.5792ZM51.7834 0V4.87779H54.4782V8.48594H51.7834V13.0334C51.7834 13.5775 51.8353 13.9403 51.939 14.1216C52.1009 14.3937 52.3859 14.5298 52.7875 14.5298C53.1503 14.5298 53.6555 14.4261 54.3098 14.2123L54.6791 17.6132C53.4612 17.8853 52.3276 18.0148 51.2717 18.0148C50.0474 18.0148 49.1405 17.8594 48.5575 17.5484C47.981 17.231 47.5534 16.7516 47.2749 16.1168C46.9963 15.4755 46.8538 14.4391 46.8538 13.0075V8.48594H45.0466V4.87779H46.8538V2.51988L51.7834 0ZM70.0897 12.5216H60.2175C60.3082 13.3119 60.5155 13.9014 60.8588 14.2901C61.3317 14.8472 61.9536 15.1192 62.7245 15.1192C63.2103 15.1192 63.6702 15.0026 64.1042 14.7629C64.3698 14.6075 64.6614 14.3419 64.9658 13.9597L69.8177 14.4002C69.0728 15.6893 68.1788 16.6156 67.1294 17.1727C66.0865 17.7363 64.5772 18.0148 62.6209 18.0148C60.9172 18.0148 59.5762 17.7751 58.6046 17.2958C57.6264 16.8164 56.8232 16.052 56.1754 15.0091C55.5406 13.9597 55.2167 12.7354 55.2167 11.3232C55.2167 9.31511 55.858 7.6827 57.1471 6.44543C58.4297 5.20169 60.2046 4.57982 62.4718 4.57982C64.3115 4.57982 65.7561 4.85837 66.825 5.41546C67.8873 5.97256 68.6971 6.7758 69.2541 7.83816C69.8112 8.89404 70.0897 10.2738 70.0897 11.9645V12.5216ZM65.0889 10.1702C64.9917 9.21794 64.7326 8.53128 64.3181 8.1167C63.9035 7.70212 63.3593 7.50132 62.6791 7.50132C61.8953 7.50132 61.267 7.81226 60.7941 8.43413C60.5026 8.8228 60.3082 9.39932 60.224 10.1702H65.0889ZM70.757 11.3362C70.757 9.3734 71.4177 7.75395 72.7327 6.4843C74.0542 5.21465 75.8356 4.57982 78.0834 4.57982C80.6486 4.57982 82.592 5.32476 83.9005 6.82114C84.9499 8.02601 85.481 9.50296 85.481 11.2584C85.481 13.2407 84.8268 14.8601 83.5183 16.1233C82.2163 17.3865 80.4025 18.0148 78.0964 18.0148C76.0364 18.0148 74.3716 17.4901 73.1019 16.4407C71.5343 15.1387 70.757 13.4415 70.757 11.3362ZM75.6801 11.3232C75.6801 12.4763 75.9133 13.3249 76.3733 13.8755C76.8332 14.4261 77.4097 14.6982 78.1158 14.6982C78.8218 14.6982 79.3984 14.4261 79.8518 13.8884C80.3053 13.3508 80.532 12.4763 80.532 11.2844C80.532 10.1637 80.3053 9.33453 79.8454 8.78392C79.3919 8.23978 78.8219 7.96772 78.1482 7.96772C77.4356 7.96772 76.8461 8.24627 76.3797 8.79688C75.9133 9.35398 75.6801 10.1961 75.6801 11.3232Z"
    fill="#2B2A29" />
  <path
    d="M86.8672 4.87779H91.4535V6.96365C92.1337 6.10858 92.8268 5.49967 93.5264 5.13044C94.226 4.7612 95.0746 4.57982 96.0851 4.57982C97.4454 4.57982 98.5078 4.98145 99.2787 5.79765C100.043 6.6009 100.425 7.85759 100.425 9.55478V17.7168H95.4762V10.656C95.4762 9.84629 95.3272 9.27623 95.0292 8.94586C94.7377 8.60902 94.3167 8.44059 93.779 8.44059C93.196 8.44059 92.7102 8.66732 92.341 9.11429C91.9782 9.56774 91.7903 10.3775 91.7903 11.55V17.7168H86.8672V4.87779ZM101.786 11.3362C101.786 9.3734 102.446 7.75395 103.768 6.4843C105.089 5.21465 106.871 4.57982 109.112 4.57982C111.684 4.57982 113.621 5.32476 114.929 6.82114C115.985 8.02601 116.51 9.50296 116.51 11.2584C116.51 13.2407 115.862 14.8601 114.553 16.1233C113.245 17.3865 111.438 18.0148 109.125 18.0148C107.065 18.0148 105.4 17.4901 104.131 16.4407C102.569 15.1387 101.786 13.4415 101.786 11.3362ZM106.715 11.3232C106.715 12.4763 106.942 13.3249 107.408 13.8755C107.868 14.4261 108.445 14.6982 109.144 14.6982C109.85 14.6982 110.427 14.4261 110.88 13.8884C111.334 13.3508 111.561 12.4763 111.561 11.2844C111.561 10.1637 111.334 9.33453 110.88 8.78392C110.421 8.23978 109.857 7.96772 109.177 7.96772C108.464 7.96772 107.875 8.24627 107.408 8.79688C106.942 9.35398 106.715 10.1961 106.715 11.3232ZM115.59 4.87779H120.707L123.201 13.0139L125.773 4.87779H130.735L125.294 17.7168H120.928L115.59 4.87779ZM129.945 11.3362C129.945 9.3734 130.605 7.75395 131.92 6.4843C133.242 5.21465 135.023 4.57982 137.271 4.57982C139.836 4.57982 141.78 5.32476 143.088 6.82114C144.138 8.02601 144.669 9.50296 144.669 11.2584C144.669 13.2407 144.015 14.8601 142.712 16.1233C141.404 17.3865 139.59 18.0148 137.284 18.0148C135.224 18.0148 133.559 17.4901 132.29 16.4407C130.722 15.1387 129.945 13.4415 129.945 11.3362ZM134.868 11.3232C134.868 12.4763 135.101 13.3249 135.561 13.8755C136.021 14.4261 136.604 14.6982 137.303 14.6982C138.01 14.6982 138.586 14.4261 139.04 13.8884C139.493 13.3508 139.72 12.4763 139.72 11.2844C139.72 10.1637 139.493 9.33453 139.033 8.78392C138.58 8.23978 138.01 7.96772 137.336 7.96772C136.623 7.96772 136.034 8.24627 135.567 8.79688C135.101 9.35398 134.868 10.1961 134.868 11.3232ZM145.187 14.154L150.065 13.7071C150.266 14.2901 150.544 14.6982 150.907 14.9508C151.27 15.197 151.755 15.32 152.358 15.32C153.019 15.32 153.53 15.1775 153.893 14.8925C154.178 14.6852 154.321 14.4261 154.321 14.1087C154.321 13.7589 154.133 13.4803 153.764 13.286C153.498 13.15 152.792 12.9815 151.652 12.7807C149.942 12.4828 148.763 12.2042 148.089 11.9516C147.428 11.6989 146.871 11.2649 146.411 10.6625C145.958 10.0536 145.731 9.36693 145.731 8.58959C145.731 7.74747 145.977 7.01548 146.463 6.40657C146.955 5.79118 147.636 5.33125 148.497 5.03328C149.359 4.72882 150.512 4.57982 151.963 4.57982C153.485 4.57982 154.619 4.69643 155.344 4.92963C156.07 5.16283 156.679 5.52558 157.164 6.0179C157.65 6.51021 158.058 7.17742 158.376 8.01954L153.725 8.46651C153.608 8.05841 153.401 7.75395 153.122 7.55962C152.74 7.30698 152.274 7.17743 151.723 7.17743C151.172 7.17743 150.771 7.27459 150.518 7.4754C150.266 7.66974 150.136 7.90943 150.136 8.19445C150.136 8.51187 150.298 8.74505 150.615 8.907C150.933 9.06894 151.632 9.21794 152.708 9.34102C154.347 9.52888 155.558 9.788 156.361 10.1184C157.158 10.4487 157.767 10.9151 158.188 11.5305C158.615 12.1459 158.823 12.8196 158.823 13.5516C158.823 14.2965 158.603 15.0156 158.149 15.7217C157.709 16.4213 157.003 16.9784 156.037 17.3929C155.079 17.8075 153.764 18.0148 152.112 18.0148C149.767 18.0148 148.095 17.6844 147.098 17.0107C146.107 16.3435 145.466 15.3913 145.187 14.154ZM166.117 0V4.87779H168.818V8.48594H166.117V13.0334C166.117 13.5775 166.175 13.9403 166.279 14.1216C166.434 14.3937 166.719 14.5298 167.127 14.5298C167.49 14.5298 167.995 14.4261 168.65 14.2123L169.012 17.6132C167.795 17.8853 166.661 18.0148 165.605 18.0148C164.381 18.0148 163.48 17.8594 162.897 17.5484C162.321 17.231 161.893 16.7516 161.608 16.1168C161.336 15.4755 161.194 14.4391 161.194 13.0075V8.48594H159.386V4.87779H161.194V2.51988L166.117 0ZM170.347 0H175.27V3.34256H170.347V0ZM170.347 4.87779H175.27V17.7168H170.347V4.87779ZM177.447 12.7937H182.694V17.7168H177.447V12.7937ZM184.721 4.87779H189.333V6.97014C189.78 6.05676 190.234 5.4349 190.707 5.09157C191.179 4.74825 191.762 4.57982 192.456 4.57982C193.188 4.57982 193.984 4.80656 194.846 5.26L193.317 8.75154C192.734 8.51186 192.274 8.38878 191.937 8.38878C191.29 8.38878 190.791 8.66084 190.435 9.19202C189.929 9.94345 189.67 11.3491 189.67 13.4026V17.7168H184.721V4.87779ZM209 17.7168H204.401V15.6504C203.714 16.5055 203.027 17.1079 202.334 17.4707C201.635 17.8334 200.78 18.0148 199.769 18.0148C198.415 18.0148 197.359 17.6132 196.588 16.797C195.818 15.9937 195.435 14.7435 195.435 13.0528V4.87779H200.384V11.9516C200.384 12.7548 200.533 13.3314 200.831 13.6747C201.129 14.0115 201.544 14.1799 202.082 14.1799C202.665 14.1799 203.144 13.9532 203.513 13.5062C203.889 13.0528 204.07 12.2366 204.07 11.0641V4.87779H209V17.7168Z"
    fill="#9D9E9E" />
</svg>
